<svg xmlns="http://www.w3.org/2000/svg" xmlns:xlink="http://www.w3.org/1999/xlink" id="eW9U6jgwn3D1" viewBox="0 0 400 356" width="400" height="356"><style><![CDATA[#eW9U6jgwn3D5_ts {animation: eW9U6jgwn3D5_ts__ts 3000ms linear infinite normal forwards}@keyframes eW9U6jgwn3D5_ts__ts { 0% {transform: translate(251.030863px,325.700000px) scale(1,1)} 50% {transform: translate(251.030863px,325.700000px) scale(1,0.930000)} 100% {transform: translate(251.030863px,325.700000px) scale(1,1)}} #eW9U6jgwn3D30_tr {animation: eW9U6jgwn3D30_tr__tr 3000ms linear infinite normal forwards}@keyframes eW9U6jgwn3D30_tr__tr { 0% {transform: translate(332.732000px,137.754486px) rotate(0deg)} 50% {transform: translate(332.732000px,137.754486px) rotate(-6deg)} 100% {transform: translate(332.732000px,137.754486px) rotate(0deg)}} #eW9U6jgwn3D50_tr {animation: eW9U6jgwn3D50_tr__tr 3000ms linear infinite normal forwards}@keyframes eW9U6jgwn3D50_tr__tr { 0% {transform: translate(322.323000px,86.904961px) rotate(0deg)} 36.666667% {transform: translate(322.323000px,86.904961px) rotate(-6deg);animation-timing-function: cubic-bezier(0.420000,0,0.580000,1)} 100% {transform: translate(322.323000px,86.904961px) rotate(0deg)}}]]></style><g id="eW9U6jgwn3D2" clip-path="url(#eW9U6jgwn3D89)"><g id="eW9U6jgwn3D3"><path id="eW9U6jgwn3D4" d="M311.500000,412C408.426000,412,487,390.286000,487,363.500000C487,336.714000,408.426000,315,311.500000,315C214.575000,315,136,336.714000,136,363.500000C136,390.286000,214.575000,412,311.500000,412Z" opacity="0.2" fill="rgb(245,245,245)" stroke="none" stroke-width="1"></path><g id="eW9U6jgwn3D5_ts" transform="translate(251.030863,325.700000) scale(1,1)"><g id="eW9U6jgwn3D5" transform="translate(-251.030863,-325.700000)"><path id="eW9U6jgwn3D6" d="M301.812000,284.788000C306.052000,262.411000,286.704000,239.954000,258.596000,234.628000C230.488000,229.301000,204.265000,243.123000,200.024000,265.500000C195.784000,287.876000,215.133000,310.334000,243.241000,315.660000C271.349000,320.986000,297.572000,307.164000,301.812000,284.788000Z" fill="rgb(16,109,219)" stroke="none" stroke-width="1"></path><path id="eW9U6jgwn3D7" d="M242.062000,325.176000C245.170000,325.546000,251.703000,325.519000,249.842000,323.875000C247.980000,322.230000,244.574000,323.739000,244.682000,317.875000C244.791000,312.011000,245.333000,306.879000,245.333000,306.879000L244.249000,306.744000L243.165000,306.617000C243.165000,306.617000,242.478000,311.731000,241.213000,317.460000C239.948000,323.188000,236.984000,320.920000,234.798000,322.086000C232.611000,323.251000,238.954000,324.796000,242.062000,325.176000Z" fill="rgb(16,109,219)" stroke="none" stroke-width="1"></path><path id="eW9U6jgwn3D8" d="M318.366000,287.932000C318.962000,284.815000,318.998000,278.138000,316.514000,279.800000C314.029000,281.463000,316.252000,285.167000,307.478000,284.101000C298.705000,283.035000,291.052000,281.662000,291.052000,281.662000L290.853000,282.710000L290.646000,283.794000C290.646000,283.794000,298.289000,285.321000,306.828000,287.544000C315.366000,289.766000,311.951000,292.414000,313.659000,294.844000C315.366000,297.275000,317.779000,291.049000,318.366000,287.932000Z" fill="rgb(16,109,219)" stroke="none" stroke-width="1"></path><path id="eW9U6jgwn3D9" d="M183.486000,262.371000C182.998000,264.937000,183.179000,270.503000,185.591000,269.193000C188.004000,267.883000,185.672000,264.766000,194.419000,265.922000C203.165000,267.079000,210.827000,268.479000,210.827000,268.479000L210.999000,267.576000L211.170000,266.672000C211.170000,266.672000,203.526000,265.163000,194.961000,263.058000C186.395000,260.953000,189.720000,258.856000,187.940000,256.787000C186.160000,254.718000,183.974000,259.805000,183.486000,262.371000Z" fill="rgb(16,109,219)" stroke="none" stroke-width="1"></path><path id="eW9U6jgwn3D10" d="M209.706000,225.787000C206.851000,226.898000,201.575000,230.106000,204.511000,230.964000C207.448000,231.823000,208.902000,228.543000,213.935000,234.895000C218.968000,241.247000,222.970000,247.002000,222.970000,247.002000L223.991000,246.568000L224.985000,246.180000C224.985000,246.180000,221.073000,240.361000,217.106000,233.603000C213.140000,226.844000,217.522000,227.838000,218.290000,225.525000C219.058000,223.212000,212.553000,224.649000,209.706000,225.787000Z" fill="rgb(16,109,219)" stroke="none" stroke-width="1"></path><path id="eW9U6jgwn3D11" d="M286.128000,321.562000C288.947000,320.152000,294.178000,316.312000,291.296000,315.589000C288.413000,314.867000,286.941000,318.517000,282.080000,311.975000C277.219000,305.434000,273.306000,299.479000,273.306000,299.479000L272.322000,299.976000L271.346000,300.464000C271.346000,300.464000,275.113000,306.500000,278.935000,313.547000C282.757000,320.595000,278.457000,319.827000,277.670000,322.384000C276.884000,324.941000,283.318000,322.953000,286.128000,321.562000Z" fill="rgb(16,109,219)" stroke="none" stroke-width="1"></path><path id="eW9U6jgwn3D12" d="M301.397000,249.378000C299.590000,247.273000,295.073000,243.307000,294.955000,245.376000C294.838000,247.445000,298.452000,248.656000,293.356000,251.908000C288.260000,255.161000,283.507000,257.736000,283.507000,257.736000L284.140000,258.468000L284.772000,259.200000C284.772000,259.200000,289.615000,256.724000,295.380000,254.258000C301.144000,251.791000,301.235000,254.872000,303.728000,255.550000C306.222000,256.227000,303.213000,251.484000,301.397000,249.378000Z" fill="rgb(16,109,219)" stroke="none" stroke-width="1"></path><path id="eW9U6jgwn3D13" d="M196.064000,304.105000C198.124000,306.400000,203.292000,310.629000,203.680000,308.208000C204.069000,305.786000,199.651000,304.684000,206.237000,300.437000C212.824000,296.191000,218.941000,292.757000,218.941000,292.757000L218.218000,291.953000L217.505000,291.158000C217.505000,291.158000,211.297000,294.483000,203.951000,297.880000C196.606000,301.277000,196.723000,297.672000,193.742000,297.112000C190.760000,296.552000,194.013000,301.810000,196.064000,304.105000Z" fill="rgb(16,109,219)" stroke="none" stroke-width="1"></path><path id="eW9U6jgwn3D14" d="M229.232000,224.441000C226.331000,224.775000,220.585000,226.338000,222.907000,227.675000C225.229000,229.013000,227.605000,226.582000,229.963000,232.943000C232.322000,239.304000,234.011000,244.969000,234.011000,244.969000L235.023000,244.852000L236.035000,244.734000C236.035000,244.734000,234.481000,239.051000,233.198000,232.564000C231.915000,226.076000,235.475000,227.838000,236.912000,226.058000C238.348000,224.278000,232.123000,224.107000,229.232000,224.441000Z" fill="rgb(16,109,219)" stroke="none" stroke-width="1"></path><path id="eW9U6jgwn3D15" d="M263.684000,325.348000C267.235000,325.257000,274.409000,324.155000,271.816000,322.637000C269.223000,321.119000,265.979000,323.351000,264.063000,316.800000C262.148000,310.249000,260.964000,304.449000,260.964000,304.449000L259.726000,304.449000L258.489000,304.449000C258.489000,304.449000,259.510000,310.259000,260.106000,316.836000C260.702000,323.414000,256.654000,321.354000,254.685000,323.035000C252.715000,324.715000,260.133000,325.447000,263.684000,325.348000Z" fill="rgb(16,109,219)" stroke="none" stroke-width="1"></path><path id="eW9U6jgwn3D16" d="M314.390000,266.284000C313.486000,263.383000,310.649000,257.528000,309.330000,259.661000C308.011000,261.793000,311.453000,264.422000,303.836000,265.985000C296.220000,267.548000,289.380000,268.524000,289.380000,268.524000L289.687000,269.536000L289.994000,270.539000C289.994000,270.539000,296.888000,269.699000,304.830000,269.220000C312.772000,268.741000,311.155000,272.030000,313.577000,273.665000C315.998000,275.301000,315.248000,269.157000,314.390000,266.284000Z" fill="rgb(16,109,219)" stroke="none" stroke-width="1"></path><path id="eW9U6jgwn3D17" d="M188.537000,283.180000C189.287000,285.502000,191.907000,290.146000,193.290000,288.357000C194.672000,286.568000,191.374000,284.571000,198.991000,282.999000C206.608000,281.427000,213.448000,280.370000,213.448000,280.370000L213.186000,279.565000L212.923000,278.752000C212.923000,278.752000,206.057000,279.701000,198.160000,280.415000C190.263000,281.129000,192.025000,278.373000,189.657000,277.135000C187.290000,275.897000,187.778000,280.903000,188.537000,283.180000Z" fill="rgb(16,109,219)" stroke="none" stroke-width="1"></path><path id="eW9U6jgwn3D18" d="M197.463000,245.538000C195.584000,247.915000,192.657000,253.354000,195.530000,252.767000C198.403000,252.179000,198.087000,248.466000,205.297000,251.863000C212.507000,255.260000,218.624000,258.522000,218.624000,258.522000L219.275000,257.691000L219.925000,256.860000C219.925000,256.860000,213.899000,253.444000,207.393000,249.207000C200.888000,244.969000,205.026000,243.786000,204.592000,241.301000C204.159000,238.816000,199.334000,243.162000,197.463000,245.538000Z" fill="rgb(16,109,219)" stroke="none" stroke-width="1"></path><path id="eW9U6jgwn3D19" d="M304.406000,304.765000C306.285000,302.389000,309.222000,296.949000,306.339000,297.537000C303.457000,298.124000,303.782000,301.838000,296.572000,298.440000C289.362000,295.043000,283.254000,291.781000,283.254000,291.781000L282.594000,292.612000L281.944000,293.435000C281.944000,293.435000,287.970000,296.850000,294.485000,301.097000C300.999000,305.343000,296.843000,306.518000,297.286000,309.003000C297.729000,311.487000,302.517000,307.105000,304.406000,304.765000Z" fill="rgb(16,109,219)" stroke="none" stroke-width="1"></path><path id="eW9U6jgwn3D20" d="M283.624000,234.506000C280.642000,232.573000,273.866000,229.248000,274.715000,231.705000C275.564000,234.163000,280.082000,234.533000,276.142000,239.837000C272.203000,245.141000,268.300000,249.568000,268.300000,249.568000L269.339000,250.237000L270.378000,250.914000C270.378000,250.914000,274.417000,246.587000,279.467000,241.997000C284.518000,237.407000,286.090000,241.003000,289.117000,241.093000C292.144000,241.183000,286.614000,236.449000,283.624000,234.506000Z" fill="rgb(16,109,219)" stroke="none" stroke-width="1"></path><path id="eW9U6jgwn3D21" d="M216.257000,317.559000C218.967000,318.987000,225.147000,321.173000,224.452000,318.815000C223.756000,316.457000,219.554000,316.909000,223.440000,310.864000C227.325000,304.819000,231.138000,299.669000,231.138000,299.669000L230.234000,299.172000L229.331000,298.675000C229.331000,298.675000,225.391000,303.753000,220.503000,309.274000C215.615000,314.794000,214.278000,311.442000,211.468000,311.912000C208.658000,312.382000,213.555000,316.141000,216.257000,317.559000Z" fill="rgb(16,109,219)" stroke="none" stroke-width="1"></path><path id="eW9U6jgwn3D22" d="M228.725000,271.027000C228.547000,271.029000,228.369000,270.998000,228.201000,270.937000C227.945000,270.850000,227.714000,270.699000,227.533000,270.498000C227.351000,270.297000,227.223000,270.053000,227.162000,269.789000C225.726000,263.465000,225.174000,258.314000,225.536000,254.375000C225.543000,254.158000,225.595000,253.944000,225.688000,253.747000C225.781000,253.551000,225.913000,253.375000,226.076000,253.231000C226.240000,253.088000,226.430000,252.978000,226.637000,252.911000C226.844000,252.843000,227.062000,252.819000,227.279000,252.838000C227.495000,252.858000,227.706000,252.922000,227.897000,253.025000C228.088000,253.129000,228.256000,253.271000,228.391000,253.442000C228.525000,253.613000,228.623000,253.809000,228.679000,254.019000C228.735000,254.230000,228.748000,254.449000,228.716000,254.664000C228.502000,258.668000,228.848000,262.683000,229.746000,266.591000C234.372000,263.049000,238.447000,260.628000,241.890000,259.363000C242.090000,259.276000,242.306000,259.231000,242.524000,259.230000C242.742000,259.230000,242.958000,259.274000,243.158000,259.360000C243.358000,259.446000,243.539000,259.573000,243.689000,259.731000C243.839000,259.890000,243.954000,260.077000,244.029000,260.282000C244.104000,260.487000,244.136000,260.705000,244.123000,260.923000C244.110000,261.140000,244.053000,261.353000,243.955000,261.548000C243.857000,261.743000,243.721000,261.916000,243.553000,262.056000C243.386000,262.196000,243.192000,262.300000,242.983000,262.362000C239.369000,263.672000,234.924000,266.464000,229.728000,270.666000C229.445000,270.897000,229.091000,271.025000,228.725000,271.027000Z" fill="rgb(255,255,255)" stroke="none" stroke-width="1"></path><path id="eW9U6jgwn3D23" d="M239.106000,304.196000C238.806000,304.195000,238.512000,304.110000,238.257000,303.952000C234.529000,301.453000,231.116000,298.513000,228.092000,295.197000C226.515000,297.365000,225.376000,299.820000,224.740000,302.425000C224.653000,302.831000,224.410000,303.188000,224.064000,303.418000C223.719000,303.649000,223.296000,303.736000,222.888000,303.661000C222.479000,303.586000,222.115000,303.354000,221.874000,303.016000C221.633000,302.677000,221.533000,302.258000,221.596000,301.847000C222.129000,298.982000,223.819000,295.585000,226.620000,291.736000C226.758000,291.544000,226.938000,291.385000,227.146000,291.271000C227.354000,291.157000,227.585000,291.091000,227.821000,291.077000C228.057000,291.066000,228.292000,291.107000,228.510000,291.196000C228.728000,291.285000,228.925000,291.420000,229.086000,291.592000C232.273000,295.264000,235.916000,298.513000,239.929000,301.259000C240.223000,301.448000,240.447000,301.727000,240.568000,302.055000C240.688000,302.383000,240.698000,302.741000,240.595000,303.075000C240.493000,303.409000,240.284000,303.700000,240,303.904000C239.717000,304.108000,239.374000,304.214000,239.025000,304.205000L239.106000,304.196000Z" fill="rgb(255,255,255)" stroke="none" stroke-width="1"></path><path id="eW9U6jgwn3D24" d="M260.223000,284.969000C260.756000,277.496000,267.985000,264.187000,276.704000,269.609000C282.685000,273.313000,275.123000,278.644000,273.885000,286.676000C272.981000,292.793000,277.878000,299.073000,270.524000,302.100000C263.169000,305.127000,259.537000,294.655000,260.223000,284.969000Z" fill="rgb(255,255,255)" stroke="none" stroke-width="1"></path><path id="eW9U6jgwn3D25" d="M286.082000,269.890000C289.548000,262.082000,284.406000,252.222000,274.595000,247.866000C264.785000,243.510000,254.022000,246.309000,250.556000,254.117000C247.089000,261.925000,252.232000,271.786000,262.042000,276.142000C271.852000,280.497000,282.615000,277.698000,286.082000,269.890000Z" opacity="0.1" fill="rgb(255,255,255)" stroke="none" stroke-width="1"></path><path id="eW9U6jgwn3D26" d="M230.212000,282.793000C238.211000,279.684000,242.690000,272.001000,240.216000,265.634000C237.741000,259.267000,229.249000,256.625000,221.249000,259.735000C213.249000,262.844000,208.770000,270.527000,211.245000,276.894000C213.720000,283.261000,222.212000,285.903000,230.212000,282.793000Z" opacity="0.1" fill="rgb(255,255,255)" stroke="none" stroke-width="1"></path><path id="eW9U6jgwn3D27" d="M252,306.536000C249.651000,310.150000,244.022000,310.747000,239.432000,307.783000C234.842000,304.819000,233.044000,299.470000,235.393000,295.820000C237.743000,292.170000,243.381000,291.610000,247.962000,294.564000C252.543000,297.519000,254.350000,302.886000,252,306.536000Z" opacity="0.1" fill="rgb(255,255,255)" stroke="none" stroke-width="1"></path><path id="eW9U6jgwn3D28" d="M282.996000,304.517000C287.766000,301.862000,289.920000,296.631000,287.806000,292.834000C285.692000,289.036000,280.112000,288.109000,275.342000,290.764000C270.571000,293.419000,268.418000,298.650000,270.532000,302.448000C272.646000,306.246000,278.226000,307.172000,282.996000,304.517000Z" opacity="0.1" fill="rgb(255,255,255)" stroke="none" stroke-width="1"></path></g></g><path id="eW9U6jgwn3D29" d="M342.354000,30.623700C348.462000,27.614900,358.509000,31.165800,362.015000,40.562600C365.521000,49.959300,359.377000,55.841400,361.491000,62.617900C363.605000,69.394400,364.924000,73.279600,363.750000,83.823800C362.575000,94.368100,354.714000,99.409800,348.724000,90.473800C342.734000,81.537900,329.018000,82.414300,329.632000,75.041500C330.247000,67.668600,333.707000,52.236300,331.972000,46.128400C330.238000,40.020500,336.246000,31.147800,342.354000,30.623700Z" fill="rgb(38,50,56)" stroke="none" stroke-width="1"></path><g id="eW9U6jgwn3D30_tr" transform="translate(332.732000,137.754486) rotate(0)"><g id="eW9U6jgwn3D30" transform="translate(-332.732000,-137.754486)"><path id="eW9U6jgwn3D31" d="M265.202000,236.639000L256.745000,234.940000L262.157000,215.677000L270.605000,217.366000L265.202000,236.639000Z" transform="matrix(1 0 0 1 0 -0.00000000000003)" fill="rgb(255,195,189)" stroke="none" stroke-width="1"></path><path id="eW9U6jgwn3D32" d="M257.269000,228.995000L266.811000,230.666000C266.973000,230.691000,267.119000,230.777000,267.220000,230.906000C267.321000,231.036000,267.369000,231.199000,267.353000,231.362000L266.702000,239.024000C266.676000,239.220000,266.610000,239.409000,266.510000,239.579000C266.409000,239.749000,266.275000,239.897000,266.115000,240.015000C265.956000,240.132000,265.774000,240.216000,265.582000,240.261000C265.389000,240.307000,265.190000,240.313000,264.995000,240.280000C261.688000,239.638000,260.125000,239.168000,255.959000,238.473000C253.384000,238.021000,245.912000,236.982000,242.343000,236.358000C238.774000,235.735000,239.407000,232.211000,240.961000,232.157000C247.945000,231.904000,253.086000,230.775000,255.761000,229.302000C256.215000,229.034000,256.746000,228.926000,257.269000,228.995000Z" fill="rgb(38,50,56)" stroke="none" stroke-width="1"></path><g id="eW9U6jgwn3D33" opacity="0.2"><path id="eW9U6jgwn3D34" d="M262.157000,215.677000L259.365000,225.615000L267.822000,227.305000L270.614000,217.375000L262.157000,215.677000Z" transform="matrix(1 0 0 1 0 -0.00000000000003)" opacity="0.2" fill="rgb(0,0,0)" stroke="none" stroke-width="1"></path></g><path id="eW9U6jgwn3D35" d="M325.973000,129.488000C325.973000,129.488000,267.524000,138.226000,265.924000,164.365000C264.262000,191.561000,258.181000,220.041000,258.181000,220.041000L271.526000,225.028000C271.526000,225.028000,284.420000,192.682000,287.663000,166.027000C315.610000,158.356000,353.206000,160.028000,351.634000,128.720000L325.973000,129.488000Z" fill="rgb(16,109,219)" stroke="none" stroke-width="1"></path><path id="eW9U6jgwn3D36" d="M325.973000,129.488000C325.973000,129.488000,267.524000,138.226000,265.924000,164.365000C264.262000,191.561000,258.181000,220.041000,258.181000,220.041000L271.526000,225.028000C271.526000,225.028000,284.420000,192.682000,287.663000,166.027000C315.610000,158.356000,353.206000,160.028000,351.634000,128.720000L325.973000,129.488000Z" opacity="0.2" fill="rgb(255,255,255)" stroke="none" stroke-width="1"></path><path id="eW9U6jgwn3D37" d="M272.284000,226.158000L257.303000,221.803000L257.665000,217.393000L274.579000,221.179000L272.284000,226.158000Z" fill="rgb(38,50,56)" stroke="none" stroke-width="1"></path><path id="eW9U6jgwn3D38" d="M253.744000,229.907000C253.010000,229.844000,252.323000,229.524000,251.802000,229.004000C251.695000,228.855000,251.626000,228.683000,251.603000,228.501000C251.579000,228.320000,251.601000,228.136000,251.666000,227.965000C251.700000,227.855000,251.760000,227.756000,251.840000,227.674000C251.920000,227.593000,252.018000,227.531000,252.127000,227.495000C253.302000,227.115000,256.283000,229.419000,256.645000,229.690000C256.677000,229.715000,256.699000,229.750000,256.709000,229.789000C256.719000,229.829000,256.715000,229.870000,256.699000,229.907000C256.683000,229.948000,256.656000,229.983000,256.621000,230.009000C256.586000,230.035000,256.544000,230.050000,256.500000,230.052000C255.579000,230.085000,254.657000,230.036000,253.744000,229.907000ZM252.633000,227.901000C252.505000,227.869000,252.372000,227.869000,252.244000,227.901000C252.199000,227.914000,252.158000,227.938000,252.124000,227.971000C252.091000,228.004000,252.067000,228.046000,252.055000,228.091000C252.012000,228.203000,251.998000,228.323000,252.013000,228.442000C252.029000,228.560000,252.074000,228.672000,252.145000,228.769000C252.552000,229.320000,253.952000,229.672000,255.886000,229.672000C254.913000,228.897000,253.812000,228.298000,252.633000,227.901000Z" fill="rgb(16,109,219)" stroke="none" stroke-width="1"></path><path id="eW9U6jgwn3D39" d="M256.446000,230.070000C256.419000,230.078000,256.391000,230.078000,256.365000,230.070000C255.461000,229.437000,253.880000,227.269000,254.259000,226.347000C254.341000,226.130000,254.576000,225.877000,255.163000,225.923000C255.363000,225.933000,255.558000,225.986000,255.736000,226.078000C255.913000,226.170000,256.069000,226.298000,256.193000,226.456000C257.051000,227.522000,256.726000,229.826000,256.708000,229.916000C256.703000,229.952000,256.690000,229.986000,256.669000,230.016000C256.649000,230.046000,256.622000,230.070000,256.591000,230.088000C256.542000,230.100000,256.490000,230.093000,256.446000,230.070000ZM255.208000,226.311000L255.091000,226.311000C254.711000,226.311000,254.657000,226.429000,254.639000,226.474000C254.413000,227.025000,255.443000,228.697000,256.328000,229.492000C256.470000,228.537000,256.303000,227.561000,255.850000,226.709000C255.694000,226.500000,255.465000,226.358000,255.208000,226.311000Z" transform="matrix(1 0 0 1 0.00000000000003 -0.00000000000003)" fill="rgb(16,109,219)" stroke="none" stroke-width="1"></path></g></g><path id="eW9U6jgwn3D40" d="M378.206000,316.900000L369.586000,316.900000L367.418000,296.940000L376.038000,296.940000L378.206000,316.900000Z" fill="rgb(255,195,189)" stroke="none" stroke-width="1"></path><path id="eW9U6jgwn3D41" d="M368.837000,315.897000L378.496000,315.897000C378.663000,315.893000,378.825000,315.953000,378.951000,316.063000C379.076000,316.174000,379.156000,316.327000,379.174000,316.493000L380.150000,324.146000C380.166000,324.341000,380.141000,324.537000,380.078000,324.723000C380.015000,324.908000,379.913000,325.078000,379.781000,325.222000C379.649000,325.367000,379.488000,325.482000,379.309000,325.561000C379.129000,325.640000,378.936000,325.681000,378.740000,325.682000C375.361000,325.628000,373.744000,325.429000,369.488000,325.429000C366.868000,325.429000,362.440000,325.700000,358.817000,325.700000C355.194000,325.700000,355.067000,322.086000,356.585000,321.797000C363.362000,320.342000,365.061000,318.345000,367.365000,316.430000C367.777000,316.084000,368.299000,315.895000,368.837000,315.897000Z" fill="rgb(38,50,56)" stroke="none" stroke-width="1"></path><g id="eW9U6jgwn3D42" opacity="0.2"><path id="eW9U6jgwn3D43" d="M367.428000,296.949000L368.539000,307.232000L377.159000,307.232000L376.047000,296.949000L367.428000,296.949000Z" opacity="0.2" fill="rgb(0,0,0)" stroke="none" stroke-width="1"></path></g><path id="eW9U6jgwn3D44" d="M361.022000,128.440000C370.256000,141.785000,363.850000,190.784000,366.822000,216.987000C375.993000,240.885000,377.864000,305.253000,377.864000,305.253000L367.021000,305.253000C367.021000,305.253000,354.661000,245.791000,346.872000,216.842000C337.385000,188.236000,333.572000,129.262000,333.572000,129.262000C333.572000,129.262000,348.399000,128.693000,361.022000,128.440000Z" fill="rgb(16,109,219)" stroke="none" stroke-width="1"></path><path id="eW9U6jgwn3D45" d="M361.022000,128.440000C370.256000,141.785000,363.850000,190.784000,366.822000,216.987000C375.993000,240.885000,377.864000,305.253000,377.864000,305.253000L367.021000,305.253000C367.021000,305.253000,354.661000,245.791000,346.872000,216.842000C337.385000,188.236000,333.572000,129.262000,333.572000,129.262000C333.572000,129.262000,348.399000,128.693000,361.022000,128.440000Z" opacity="0.3" fill="rgb(255,255,255)" stroke="none" stroke-width="1"></path><path id="eW9U6jgwn3D46" d="M378.667000,305.660000L364.997000,305.660000L364.229000,301.295000L379.571000,300.762000L378.667000,305.660000Z" fill="rgb(38,50,56)" stroke="none" stroke-width="1"></path><path id="eW9U6jgwn3D47" d="M367.734000,316.141000C366.973000,315.870000,366.303000,315.391000,365.801000,314.758000C365.697000,314.605000,365.631000,314.428000,365.611000,314.244000C365.590000,314.060000,365.615000,313.873000,365.683000,313.701000C365.717000,313.603000,365.781000,313.519000,365.865000,313.459000C365.949000,313.399000,366.050000,313.367000,366.153000,313.367000C367.346000,313.294000,370.318000,316.357000,370.671000,316.710000C370.703000,316.739000,370.726000,316.776000,370.737000,316.818000C370.748000,316.860000,370.747000,316.904000,370.734000,316.945000C370.715000,316.981000,370.684000,317.010000,370.646000,317.027000C370.608000,317.043000,370.566000,317.046000,370.526000,317.035000C369.574000,316.811000,368.640000,316.512000,367.734000,316.141000ZM366.659000,313.873000C366.537000,313.807000,366.400000,313.772000,366.262000,313.773000C366.218000,313.772000,366.176000,313.786000,366.141000,313.812000C366.107000,313.838000,366.082000,313.876000,366.072000,313.918000C366.028000,314.030000,366.012000,314.151000,366.024000,314.270000C366.037000,314.390000,366.078000,314.504000,366.144000,314.605000C366.542000,315.255000,367.951000,315.942000,369.903000,316.475000C368.947000,315.462000,367.855000,314.586000,366.659000,313.873000Z" fill="rgb(16,109,219)" stroke="none" stroke-width="1"></path><path id="eW9U6jgwn3D48" d="M370.463000,317.044000C370.431000,317.035000,370.403000,317.016000,370.382000,316.990000C369.478000,316.086000,367.924000,313.574000,368.322000,312.770000C368.421000,312.572000,368.656000,312.382000,369.225000,312.581000C369.654000,312.717000,370.019000,313.002000,370.255000,313.385000C371.105000,314.659000,370.734000,316.845000,370.716000,316.936000C370.711000,316.967000,370.696000,316.996000,370.673000,317.019000C370.650000,317.042000,370.621000,317.057000,370.590000,317.062000C370.547000,317.070000,370.502000,317.064000,370.463000,317.044000ZM369.288000,313.005000L369.171000,312.960000C368.791000,312.834000,368.728000,312.960000,368.710000,312.960000C368.466000,313.448000,369.469000,315.363000,370.355000,316.384000C370.506000,315.405000,370.354000,314.403000,369.921000,313.511000C369.768000,313.274000,369.548000,313.089000,369.288000,312.978000L369.288000,313.005000Z" fill="rgb(16,109,219)" stroke="none" stroke-width="1"></path><path id="eW9U6jgwn3D49" d="M363.389000,77.932700C367.003000,82.107100,370.365000,86.335600,373.672000,90.699700C376.978000,95.063800,380.204000,99.491100,383.213000,104.253000C383.583000,104.831000,383.945000,105.463000,384.315000,106.060000C384.686000,106.656000,385.038000,107.289000,385.381000,107.939000L385.914000,108.897000L386.041000,109.141000C386.122000,109.285000,386.222000,109.511000,386.303000,109.701000C386.469000,110.090000,386.593000,110.496000,386.673000,110.912000C386.933000,112.257000,386.821000,113.647000,386.348000,114.932000C385.701000,116.608000,384.762000,118.156000,383.574000,119.504000C382.605000,120.653000,381.554000,121.731000,380.430000,122.730000C376.214000,126.447000,371.592000,129.675000,366.651000,132.353000L364.193000,128.738000C368.179000,125.358000,371.954000,121.737000,375.497000,117.896000C376.289000,116.986000,377.034000,116.036000,377.728000,115.050000C378.278000,114.317000,378.697000,113.495000,378.966000,112.619000C379.020000,112.366000,378.966000,112.321000,378.966000,112.619000C378.966000,112.692000,378.966000,112.782000,379.029000,112.863000C379.042000,112.901000,379.057000,112.937000,379.075000,112.972000L378.948000,112.773000L378.496000,111.942000C378.180000,111.418000,377.837000,110.885000,377.466000,110.352000C377.096000,109.818000,376.762000,109.285000,376.382000,108.752000C373.391000,104.488000,370.112000,100.268000,366.805000,96.102800C363.498000,91.937500,360.073000,87.745100,356.703000,83.634000L363.389000,77.932700Z" fill="rgb(255,195,189)" stroke="none" stroke-width="1"></path><g id="eW9U6jgwn3D50_tr" transform="translate(322.323000,86.904961) rotate(0)"><g id="eW9U6jgwn3D50" transform="translate(-322.323000,-86.904961)"><path id="eW9U6jgwn3D51" d="M325.422000,85.576700C324.907000,85.712200,324.618000,85.775500,324.247000,85.856800L323.199000,86.064600C322.503000,86.182000,321.826000,86.290500,321.148000,86.371800C319.793000,86.561500,318.438000,86.679000,317.118000,86.778400C314.408000,86.950000,311.797000,86.922900,309.158000,86.841600C306.520000,86.760300,303.900000,86.525400,301.297000,86.191100C299.996000,86.037500,298.704000,85.829700,297.412000,85.630900L293.572000,84.917100L293.355000,84.917100C292.752000,84.794200,292.189000,84.523500,291.715000,84.129200C291.242000,83.735000,290.875000,83.229600,290.645000,82.658300C289.958000,80.910800,289.725000,79.017700,289.967000,77.155700C290.141000,75.710200,290.444000,74.283000,290.871000,72.891100C291.649000,70.372400,292.625000,67.919300,293.789000,65.554400C294.909000,63.250300,296.129000,61.036700,297.403000,58.877200C298.677000,56.717800,300.060000,54.630600,301.578000,52.552500C301.901000,52.123000,302.371000,51.827000,302.898000,51.720800C303.425000,51.614500,303.973000,51.705400,304.437000,51.976100C304.902000,52.246800,305.251000,52.678500,305.418000,53.189500C305.585000,53.700400,305.560000,54.255000,305.345000,54.748100C304.369000,56.916600,303.367000,59.148300,302.472000,61.371000C301.578000,63.593700,300.665000,65.816400,299.906000,68.039100C299.136000,70.190500,298.511000,72.391000,298.036000,74.625800C297.826000,75.609900,297.705000,76.610800,297.674000,77.616500C297.619000,78.204600,297.709000,78.797100,297.936000,79.342300L294.973000,77.047300L298.587000,77.472000C299.798000,77.562300,300.999000,77.725000,302.201000,77.797300C303.403000,77.869500,304.613000,77.968900,305.815000,77.996000C307.017000,78.023100,308.228000,78.095400,309.429000,78.113500C311.833000,78.113500,314.218000,78.050200,316.576000,77.887600C317.751000,77.806300,318.916000,77.697900,320.064000,77.544300C320.642000,77.481000,321.193000,77.381600,321.754000,77.300300L322.567000,77.164800L323.226000,77.038300L323.533000,76.975000C324.652000,76.765700,325.807000,76.997400,326.758000,77.621700C327.709000,78.246000,328.381000,79.214300,328.634000,80.323500C328.886000,81.432700,328.699000,82.596500,328.112000,83.570900C327.525000,84.545300,326.584000,85.254400,325.485000,85.549600L325.422000,85.576700Z" fill="rgb(255,195,189)" stroke="none" stroke-width="1"></path><path id="eW9U6jgwn3D52" d="M305.825000,44.800200L305.282000,45.089300C303.826000,45.870000,302.705000,47.155000,302.129000,48.703400L300.250000,53.754200C300.250000,53.754200,297.205000,58.497800,295.316000,60.250600C296.708000,62.057700,300.665000,64.072600,302.301000,63.702100C303.246000,61.743400,303.991000,59.694000,304.523000,57.585200C306.256000,56.658700,307.813000,55.435500,309.122000,53.971000L311.119000,52.028400C311.721000,51.450000,312.091000,50.671600,312.159000,49.839700C312.227000,49.007800,311.989000,48.179600,311.490000,47.510800L310.198000,45.703700C309.700000,45.051700,308.983000,44.601400,308.180000,44.435400C307.376000,44.269400,306.540000,44.398900,305.825000,44.800200Z" fill="rgb(16,109,219)" stroke="none" stroke-width="1"></path><path id="eW9U6jgwn3D53" d="M305.825000,44.800200L305.282000,45.089300C303.826000,45.870000,302.705000,47.155000,302.129000,48.703400L300.250000,53.754200C300.250000,53.754200,297.205000,58.497800,295.316000,60.250600C296.708000,62.057700,300.665000,64.072600,302.301000,63.702100C303.246000,61.743400,303.991000,59.694000,304.523000,57.585200C306.256000,56.658700,307.813000,55.435500,309.122000,53.971000L311.119000,52.028400C311.721000,51.450000,312.091000,50.671600,312.159000,49.839700C312.227000,49.007800,311.989000,48.179600,311.490000,47.510800L310.198000,45.703700C309.700000,45.051700,308.983000,44.601400,308.180000,44.435400C307.376000,44.269400,306.540000,44.398900,305.825000,44.800200Z" opacity="0.6" fill="rgb(255,255,255)" stroke="none" stroke-width="1"></path><path id="eW9U6jgwn3D54" d="M328.666000,75.710000C325.052000,76.216000,304.433000,77.661700,304.433000,77.661700L307.144000,97.286400C307.144000,97.286400,323.886000,95.750400,327.021000,92.163400C330.256000,88.449900,333.961000,74.987200,328.666000,75.710000Z" fill="rgb(16,109,219)" stroke="none" stroke-width="1"></path></g></g><path id="eW9U6jgwn3D55" d="M320.904000,81.980500C319.386000,84.167100,317.814000,90.898400,317.877000,95.678100C319.422000,95.352800,320.958000,94.982400,322.323000,94.548700L320.904000,81.980500Z" opacity="0.2" fill="rgb(0,0,0)" stroke="none" stroke-width="1"></path><path id="eW9U6jgwn3D56" d="M359.720000,75.231200C360.622000,75.371100,361.485000,75.693300,362.258000,76.178200C363.031000,76.663000,363.697000,77.300400,364.215000,78.051300C364.734000,78.802200,365.094000,79.650900,365.273000,80.545500C365.452000,81.440100,365.448000,82.361900,365.259000,83.254600C358.636000,111.707000,364.355000,122.613000,361.645000,129.488000C355.320000,133.392000,334.114000,133.780000,325.458000,129.633000C323.976000,125.874000,326.018000,121.935000,325.106000,115.330000C323.443000,103.331000,319.531000,100.015000,319.531000,84.140000C319.531000,80.119300,321.121000,77.146700,324.654000,76.441900C331.250000,75.131800,346.411000,72.674200,359.720000,75.231200Z" fill="rgb(16,109,219)" stroke="none" stroke-width="1"></path><path id="eW9U6jgwn3D57" d="M348.887000,114.951000C348.887000,114.951000,355.212000,117.742000,359.729000,118.194000C359.838000,118.899000,359.928000,120.056000,360,121.339000C360.262000,126.046000,355.365000,129.534000,351.155000,127.428000C350.619000,127.208000,350.138000,126.874000,349.743000,126.450000C349.349000,126.025000,349.050000,125.521000,348.869000,124.971000C347.703000,120.525000,348.887000,114.951000,348.887000,114.951000Z" opacity="0.2" fill="rgb(255,255,255)" stroke="none" stroke-width="1"></path><path id="eW9U6jgwn3D58" d="M328.196000,113.749000C328.196000,113.749000,325.973000,116.532000,324.392000,116.983000C324.392000,117.688000,324.320000,118.845000,324.292000,120.137000C324.202000,124.835000,325.919000,128.323000,327.401000,126.227000C327.876000,125.488000,328.150000,124.637000,328.196000,123.760000C328.429000,120.427000,328.429000,117.082000,328.196000,113.749000Z" fill="rgb(16,109,219)" stroke="none" stroke-width="1"></path><path id="eW9U6jgwn3D59" d="M328.196000,113.749000C328.196000,113.749000,325.973000,116.532000,324.392000,116.983000C324.392000,117.688000,324.320000,118.845000,324.292000,120.137000C324.202000,124.835000,325.919000,128.323000,327.401000,126.227000C327.876000,125.488000,328.150000,124.637000,328.196000,123.760000C328.429000,120.427000,328.429000,117.082000,328.196000,113.749000Z" opacity="0.2" fill="rgb(255,255,255)" stroke="none" stroke-width="1"></path><path id="eW9U6jgwn3D60" d="M353.803000,93.039900C354.815000,95.922100,359.269000,106.015000,361.935000,110.207000C361.936000,106.731000,362.114000,103.257000,362.468000,99.798300L353.803000,93.039900Z" opacity="0.2" fill="rgb(0,0,0)" stroke="none" stroke-width="1"></path><path id="eW9U6jgwn3D61" d="M362.864000,76.649800C366.144000,79.360400,375.984000,91.910500,375.984000,91.910500L363.280000,107.758000C363.280000,107.758000,352.383000,94.955400,352.654000,90.202800C352.934000,85.242400,358.735000,73.261500,362.864000,76.649800Z" fill="rgb(16,109,219)" stroke="none" stroke-width="1"></path><path id="eW9U6jgwn3D62" d="M352.293000,99.229100L342.815000,98.994100C342.642000,98.991400,342.471000,98.952500,342.313000,98.879800C342.155000,98.807200,342.015000,98.702500,341.900000,98.572400C341.785000,98.442300,341.699000,98.289600,341.646000,98.124200C341.594000,97.958800,341.576000,97.784200,341.595000,97.611700L342.011000,93.455500C342.051000,93.088900,342.226000,92.750200,342.501000,92.504900C342.776000,92.259600,343.133000,92.125100,343.502000,92.127300L352.980000,92.362200C353.153000,92.364900,353.324000,92.403900,353.482000,92.476500C353.640000,92.549100,353.780000,92.653800,353.895000,92.784000C354.010000,92.914100,354.096000,93.066700,354.149000,93.232100C354.201000,93.397600,354.218000,93.572100,354.200000,93.744600L353.784000,97.900900C353.744000,98.267400,353.569000,98.606100,353.294000,98.851400C353.018000,99.096700,352.662000,99.231300,352.293000,99.229100Z" fill="rgb(255,255,255)" stroke="none" stroke-width="1"></path><path id="eW9U6jgwn3D63" d="M348.679000,56.663600C347.821000,61.804700,347.107000,71.201500,350.784000,74.508400C350.784000,74.508400,348.598000,85.260400,337.846000,89.796200C331.521000,84.808700,334.891000,74.978200,334.891000,74.978200C340.556000,73.442200,340.312000,69.222700,339.174000,65.283300L348.679000,56.663600Z" fill="rgb(255,195,189)" stroke="none" stroke-width="1"></path><path id="eW9U6jgwn3D64" d="M332.732000,79.224700C336.608000,81.998600,343.574000,82.468400,348.887000,80.019800C347.848000,83.381000,341.162000,90.329200,337.340000,91.440500C332.415000,85.142900,332.732000,79.224700,332.732000,79.224700Z" opacity="0.6" fill="rgb(16,109,219)" stroke="none" stroke-width="1"></path><path id="eW9U6jgwn3D65" d="M344.757000,60.178300L339.128000,65.274200C339.403000,66.192100,339.597000,67.132400,339.707000,68.084200C341.875000,67.704700,344.794000,65.220000,344.956000,62.934100C345.056000,62.011000,344.989000,61.077500,344.757000,60.178300Z" opacity="0.2" fill="rgb(0,0,0)" stroke="none" stroke-width="1"></path><path id="eW9U6jgwn3D66" d="M342.354000,30.623700C337.158000,27.533600,328.511000,34.825100,327.897000,45.143500C327.283000,55.461900,328.882000,59.247700,327.219000,62.852800C324.807000,68.093300,323.677000,72.240500,326.090000,77.833400C328.087000,82.468500,323.677000,87.248200,329.252000,92.362200C332.722000,79.017000,334.755000,84.411100,337.890000,74.535500C339.751000,68.662500,334.538000,58.940500,336.083000,56.943600C337.628000,54.946800,355.672000,40.716200,342.354000,30.623700Z" fill="rgb(38,50,56)" stroke="none" stroke-width="1"></path><path id="eW9U6jgwn3D67" d="M356.684000,49.335900C354.082000,57.467700,353.160000,60.982400,347.902000,64.171900C340.005000,68.978700,330.563000,64.000200,330.680000,55.235900C330.780000,47.348100,335.017000,35.358200,343.953000,34.111300C345.921000,33.828100,347.929000,34.052700,349.786000,34.763800C351.643000,35.474900,353.288000,36.648900,354.563000,38.174400C355.839000,39.699800,356.703000,41.525900,357.074000,43.479400C357.445000,45.432900,357.311000,47.448900,356.684000,49.335900Z" fill="rgb(255,195,189)" stroke="none" stroke-width="1"></path><path id="eW9U6jgwn3D68" d="M344.433000,48.757600C344.261000,49.435300,343.773000,49.887000,343.330000,49.778600C342.888000,49.670200,342.671000,49.028700,342.842000,48.351000C343.014000,47.673400,343.502000,47.221600,343.945000,47.339100C344.388000,47.456500,344.604000,48.080000,344.433000,48.757600Z" fill="rgb(38,50,56)" stroke="none" stroke-width="1"></path><path id="eW9U6jgwn3D69" d="M336.201000,46.336200C336.030000,47.013800,335.533000,47.474600,335.090000,47.357200C334.647000,47.239700,334.431000,46.607200,334.602000,45.938600C334.774000,45.270000,335.271000,44.809200,335.714000,44.917600C336.156000,45.026000,336.373000,45.667500,336.201000,46.336200Z" fill="rgb(38,50,56)" stroke="none" stroke-width="1"></path><path id="eW9U6jgwn3D70" d="M335.894000,45.008000L334.395000,44.104400C334.395000,44.104400,334.910000,45.604300,335.894000,45.008000Z" fill="rgb(38,50,56)" stroke="none" stroke-width="1"></path><path id="eW9U6jgwn3D71" d="M338.895000,47.637200C337.904000,49.023300,336.727000,50.266800,335.398000,51.332700C335.681000,51.665200,336.032000,51.932100,336.429000,52.114700C336.825000,52.297200,337.257000,52.391100,337.693000,52.389800L338.895000,47.637200Z" fill="rgb(237,132,126)" stroke="none" stroke-width="1"></path><path id="eW9U6jgwn3D72" d="M341.451000,56.826100C341.109000,56.790000,340.771000,56.729600,340.439000,56.645400C340.412000,56.640100,340.387000,56.629500,340.365000,56.614200C340.343000,56.598900,340.324000,56.579200,340.309000,56.556400C340.295000,56.533600,340.285000,56.508100,340.281000,56.481400C340.277000,56.454800,340.278000,56.427600,340.285000,56.401400C340.302000,56.349700,340.336000,56.305700,340.383000,56.277400C340.429000,56.249200,340.484000,56.238700,340.538000,56.247800C341.371000,56.480100,342.248000,56.512000,343.096000,56.340800C343.944000,56.169600,344.739000,55.800300,345.417000,55.263000C345.456000,55.225400,345.508000,55.204500,345.562000,55.204500C345.616000,55.204500,345.667000,55.225400,345.706000,55.263000C345.726000,55.281600,345.742000,55.304000,345.752000,55.328800C345.763000,55.353700,345.769000,55.380500,345.769000,55.407600C345.769000,55.434600,345.763000,55.461400,345.752000,55.486300C345.742000,55.511100,345.726000,55.533500,345.706000,55.552100C345.119000,56.039800,344.439000,56.404000,343.708000,56.622900C342.977000,56.841800,342.209000,56.910900,341.451000,56.826100Z" fill="rgb(38,50,56)" stroke="none" stroke-width="1"></path><path id="eW9U6jgwn3D73" d="M339.128000,33.487900C339.589000,38.249500,347.920000,41.917900,350.739000,41.339600C349.582000,44.637500,349.880000,56.004000,354.805000,53.989100C359.919000,50.131000,360.678000,43.481000,357.515000,37.779700C354.353000,32.078400,348.606000,30.777300,339.128000,33.487900Z" fill="rgb(38,50,56)" stroke="none" stroke-width="1"></path><path id="eW9U6jgwn3D74" d="M342.055000,37.246600C337.149000,39.261500,334.394000,39.261500,334.394000,39.261500C334.394000,39.261500,334.141000,33.840300,339.453000,33.397500C344.766000,32.954800,342.055000,37.246600,342.055000,37.246600Z" fill="rgb(38,50,56)" stroke="none" stroke-width="1"></path><path id="eW9U6jgwn3D75" d="M351.724000,62.175100C351.665000,62.171900,351.610000,62.146000,351.570000,62.102800C351.548000,62.082500,351.531000,62.058100,351.519000,62.030900C351.508000,62.003700,351.501000,61.974300,351.501000,61.944700C351.501000,61.915100,351.508000,61.885800,351.519000,61.858600C351.531000,61.831400,351.548000,61.806900,351.570000,61.786600C355.925000,57.431600,357.895000,54.133700,357.063000,52.507300C356.988000,52.353000,356.881000,52.215700,356.751000,52.103900C356.620000,51.992000,356.469000,51.907900,356.304000,51.856700C354.660000,51.323700,351.317000,53.013300,349.320000,54.025200L349.194000,54.088500C349.168000,54.103700,349.139000,54.113200,349.110000,54.116400C349.080000,54.119600,349.050000,54.116400,349.022000,54.106900C348.994000,54.097500,348.968000,54.082100,348.946000,54.061800C348.924000,54.041400,348.907000,54.016600,348.895000,53.989100C348.881000,53.963700,348.872000,53.935700,348.869000,53.906800C348.866000,53.877900,348.869000,53.848700,348.877000,53.820900C348.886000,53.793100,348.900000,53.767200,348.918000,53.744900C348.937000,53.722600,348.960000,53.704200,348.986000,53.690900L349.112000,53.627700C351.308000,52.516300,354.624000,50.826700,356.440000,51.432100C356.665000,51.502400,356.873000,51.619100,357.051000,51.774800C357.228000,51.930400,357.371000,52.121400,357.470000,52.335600C358.627000,54.657700,355.076000,58.949500,351.886000,62.129900C351.840000,62.165400,351.782000,62.181600,351.724000,62.175100Z" fill="rgb(16,109,219)" stroke="none" stroke-width="1"></path><path id="eW9U6jgwn3D76" d="M357.533000,56.826200C356.391000,58.165400,354.768000,59.002600,353.015000,59.157400C350.675000,59.329000,349.970000,57.124400,351.009000,55.163700C351.913000,53.356700,354.280000,51.170100,356.430000,51.920000C358.581000,52.670000,358.915000,55.190800,357.533000,56.826200Z" fill="rgb(255,195,189)" stroke="none" stroke-width="1"></path><path id="eW9U6jgwn3D77" d="M348.273000,46.715600C348.187000,46.708100,348.106000,46.673400,348.041000,46.616600C347.976000,46.559700,347.930000,46.483600,347.912000,46.399400C347.496000,44.592300,345.264000,43.607500,345.201000,43.598400C345.102000,43.556500,345.023000,43.476800,344.982000,43.376800C344.941000,43.276800,344.942000,43.164800,344.984000,43.065300C345.026000,42.965900,345.106000,42.887200,345.206000,42.846500C345.306000,42.805900,345.418000,42.806600,345.517000,42.848500C345.626000,42.848500,348.165000,43.968900,348.671000,46.218700C348.684000,46.271000,348.686000,46.325400,348.678000,46.378700C348.670000,46.431900,348.650000,46.483000,348.622000,46.528600C348.593000,46.574200,348.555000,46.613600,348.511000,46.644200C348.466000,46.674800,348.416000,46.696000,348.363000,46.706600C348.334000,46.714100,348.303000,46.717100,348.273000,46.715600Z" fill="rgb(38,50,56)" stroke="none" stroke-width="1"></path><path id="eW9U6jgwn3D78" d="M334.367000,42.279300C334.279000,42.300900,334.187000,42.292500,334.104000,42.255600C334.021000,42.218700,333.953000,42.155300,333.911000,42.075500C333.868000,41.995700,333.854000,41.904000,333.869000,41.814900C333.885000,41.725800,333.929000,41.644400,333.996000,41.583600C334.457000,41.126100,335.021000,40.785700,335.640000,40.590800C336.260000,40.395900,336.917000,40.352100,337.556000,40.463200C337.609000,40.475900,337.658000,40.498800,337.702000,40.530800C337.745000,40.562700,337.782000,40.603000,337.809000,40.649200C337.837000,40.695500,337.855000,40.746800,337.863000,40.800200C337.871000,40.853500,337.868000,40.907900,337.854000,40.960100C337.829000,41.064100,337.763000,41.153600,337.672000,41.209500C337.580000,41.265300,337.471000,41.282800,337.367000,41.258300C336.860000,41.177400,336.342000,41.217000,335.854000,41.374000C335.365000,41.531000,334.921000,41.800900,334.557000,42.161800C334.506000,42.217900,334.440000,42.258600,334.367000,42.279300Z" fill="rgb(38,50,56)" stroke="none" stroke-width="1"></path><path id="eW9U6jgwn3D79" d="M344.162000,47.420400L342.662000,46.516800C342.662000,46.516800,343.141000,48.016700,344.162000,47.420400Z" fill="rgb(38,50,56)" stroke="none" stroke-width="1"></path><path id="eW9U6jgwn3D80" d="M330.906000,49.417200C329.506000,48.296800,329.144000,56.040100,330.346000,60.368000C331.548000,64.696000,338.478000,67.515000,343.637000,66.801200C346.863000,66.267800,349.768000,64.534600,351.769000,61.949200C351.769000,61.949200,345.742000,57.278000,349.131000,53.889700C342.011000,53.700000,339.571000,50.953200,337.005000,50.347900C334.439000,49.742500,332.939000,51.043600,330.906000,49.417200Z" fill="rgb(255,255,255)" stroke="none" stroke-width="1"></path><path id="eW9U6jgwn3D81" d="M342.020000,67.135500C337.132000,67.135500,331.259000,64.479100,330.129000,60.422200C329.054000,56.564100,329.181000,49.941200,330.346000,49.173200C330.454000,49.104200,330.582000,49.073000,330.709000,49.084500C330.837000,49.095900,330.957000,49.149400,331.051000,49.236500C331.502000,49.594900,332.027000,49.849500,332.587000,49.982300C333.148000,50.115000,333.731000,50.122600,334.295000,50.004500C335.199000,49.900500,336.114000,49.943200,337.005000,50.131000C337.890000,50.384000,338.742000,50.738800,339.544000,51.188100C342.469000,52.787400,345.743000,53.637900,349.076000,53.663800C349.122000,53.664400,349.166000,53.678500,349.203000,53.704200C349.240000,53.730000,349.268000,53.766300,349.284000,53.808400C349.300000,53.849800,349.304000,53.895100,349.294000,53.938500C349.284000,53.981900,349.262000,54.021500,349.230000,54.052300C348.905000,54.357400,348.652000,54.729800,348.486000,55.143400C348.321000,55.557100,348.248000,56.001900,348.272000,56.446700C348.435000,59.094000,351.814000,61.741400,351.886000,61.768500C351.932000,61.804200,351.962000,61.856000,351.970000,61.913100C351.979000,61.970200,351.965000,62.028400,351.932000,62.075700C349.897000,64.698400,346.954000,66.464700,343.682000,67.027100C343.131000,67.101200,342.576000,67.137400,342.020000,67.135500ZM330.608000,49.534600C330.591000,49.529600,330.572000,49.529600,330.554000,49.534600C329.732000,50.076800,329.416000,56.302100,330.554000,60.286700C331.756000,64.596600,338.686000,67.243900,343.601000,66.557200C346.677000,66.033300,349.454000,64.400400,351.408000,61.967300C350.676000,61.361900,347.992000,58.976600,347.793000,56.455700C347.733000,55.594100,348.008000,54.742600,348.561000,54.079400C345.326000,53.983400,342.160000,53.126000,339.318000,51.576600C338.543000,51.145600,337.722000,50.803100,336.870000,50.555600C336.021000,50.371900,335.147000,50.332200,334.286000,50.438200C333.662000,50.549300,333.022000,50.526200,332.408000,50.370400C331.794000,50.214600,331.221000,49.929700,330.726000,49.534600C330.687000,49.522800,330.646000,49.522800,330.608000,49.534600Z" fill="rgb(16,109,219)" stroke="none" stroke-width="1"></path><path id="eW9U6jgwn3D82" d="M346.872000,59.157400C342.092000,59.157400,334.484000,57.142500,331.222000,55.001100C331.173000,54.969500,331.137000,54.919600,331.124000,54.862200C331.110000,54.804800,331.120000,54.744400,331.150000,54.693900C331.183000,54.643500,331.235000,54.607900,331.294000,54.594400C331.353000,54.580900,331.414000,54.590700,331.466000,54.621600C334.611000,56.681700,342.245000,58.705600,346.872000,58.705600C346.931000,58.705600,346.989000,58.729400,347.031000,58.771700C347.074000,58.814100,347.097000,58.871600,347.097000,58.931500C347.097000,58.991400,347.074000,59.048800,347.031000,59.091200C346.989000,59.133600,346.931000,59.157400,346.872000,59.157400Z" opacity="0.1" fill="rgb(16,109,219)" stroke="none" stroke-width="1"></path><path id="eW9U6jgwn3D83" d="M343.827000,62.419100C339.381000,62.419100,333.888000,61.371000,331.846000,60.078900C331.820000,60.064100,331.798000,60.044200,331.781000,60.020500C331.763000,59.996800,331.750000,59.969700,331.744000,59.940900C331.737000,59.912100,331.736000,59.882300,331.741000,59.853200C331.746000,59.824100,331.757000,59.796400,331.774000,59.771700C331.789000,59.746100,331.808000,59.723900,331.832000,59.706200C331.856000,59.688600,331.883000,59.676000,331.912000,59.669300C331.940000,59.662500,331.970000,59.661700,331.999000,59.666900C332.029000,59.672100,332.056000,59.683100,332.081000,59.699400C334.792000,61.380000,343.935000,62.681100,347.983000,61.506500C348.011000,61.498300,348.040000,61.495800,348.069000,61.499100C348.098000,61.502500,348.126000,61.511600,348.151000,61.525900C348.176000,61.540200,348.199000,61.559500,348.216000,61.582500C348.234000,61.605600,348.247000,61.632000,348.254000,61.660100C348.264000,61.688500,348.267000,61.718700,348.265000,61.748600C348.262000,61.778500,348.253000,61.807600,348.239000,61.833900C348.224000,61.860200,348.205000,61.883300,348.181000,61.901600C348.157000,61.919900,348.130000,61.933000,348.101000,61.940200C346.703000,62.288300,345.266000,62.449300,343.827000,62.419100Z" opacity="0.1" fill="rgb(16,109,219)" stroke="none" stroke-width="1"></path><path id="eW9U6jgwn3D84" d="M371.873000,120.715000C370.185000,122.660000,368.374000,124.495000,366.451000,126.209000L361.328000,127.302000C358.948000,127.808000,356.854000,129.213000,355.483000,131.223000C355.115000,131.764000,354.956000,132.420000,355.034000,133.069000C355.112000,133.718000,355.422000,134.317000,355.907000,134.756000L358.437000,137.051000C358.922000,137.491000,359.549000,137.740000,360.204000,137.754000C360.858000,137.767000,361.495000,137.543000,361.997000,137.123000L364.608000,134.955000C364.608000,134.955000,370.192000,134.548000,370.029000,130.826000C370.029000,130.826000,372.171000,129.615000,374.547000,128.115000C374.773000,126.398000,373.562000,122.784000,371.873000,120.715000Z" fill="rgb(16,109,219)" stroke="none" stroke-width="1"></path><path id="eW9U6jgwn3D85" d="M371.873000,120.715000C370.185000,122.660000,368.374000,124.495000,366.451000,126.209000L361.328000,127.302000C358.948000,127.808000,356.854000,129.213000,355.483000,131.223000C355.115000,131.764000,354.956000,132.420000,355.034000,133.069000C355.112000,133.718000,355.422000,134.317000,355.907000,134.756000L358.437000,137.051000C358.922000,137.491000,359.549000,137.740000,360.204000,137.754000C360.858000,137.767000,361.495000,137.543000,361.997000,137.123000L364.608000,134.955000C364.608000,134.955000,370.192000,134.548000,370.029000,130.826000C370.029000,130.826000,372.171000,129.615000,374.547000,128.115000C374.773000,126.398000,373.562000,122.784000,371.873000,120.715000Z" opacity="0.6" fill="rgb(255,255,255)" stroke="none" stroke-width="1"></path><path id="eW9U6jgwn3D86" d="M232.545000,208.378000L231.825000,208.776000L236.649000,217.497000L237.369000,217.099000L232.545000,208.378000Z" fill="rgb(16,109,219)" stroke="none" stroke-width="1"></path><path id="eW9U6jgwn3D87" d="M287.937000,221.101000L278.777000,225.027000L279.101000,225.783000L288.261000,221.857000L287.937000,221.101000Z" fill="rgb(16,109,219)" stroke="none" stroke-width="1"></path><path id="eW9U6jgwn3D88" d="M236.527000,195.301000L235.743000,195.547000L243.011000,218.740000L243.795000,218.494000L236.527000,195.301000Z" fill="rgb(16,109,219)" stroke="none" stroke-width="1"></path></g><clipPath id="eW9U6jgwn3D89"><rect id="eW9U6jgwn3D90" width="400" height="356" rx="0" ry="0" fill="rgb(255,255,255)" stroke="none" stroke-width="1"></rect></clipPath></g></svg>