<svg xmlns="http://www.w3.org/2000/svg" xmlns:xlink="http://www.w3.org/1999/xlink" id="eEol3nXSYRe1" viewBox="0 0 400 356" width="400" height="356"><style><![CDATA[#eEol3nXSYRe15_tr {animation: eEol3nXSYRe15_tr__tr 3000ms linear infinite normal forwards}@keyframes eEol3nXSYRe15_tr__tr { 0% {transform: translate(193.271217px,87.800750px) rotate(0deg);animation-timing-function: cubic-bezier(0,0,0.580000,1)} 50% {transform: translate(193.271217px,87.800750px) rotate(5deg);animation-timing-function: cubic-bezier(0,0,0.580000,1)} 100% {transform: translate(193.271217px,87.800750px) rotate(0deg)}} #eEol3nXSYRe28_tr {animation: eEol3nXSYRe28_tr__tr 3000ms linear infinite normal forwards}@keyframes eEol3nXSYRe28_tr__tr { 0% {transform: translate(215.056500px,79.294064px) rotate(0deg)} 66.666667% {transform: translate(215.056500px,79.294064px) rotate(-3deg)} 100% {transform: translate(215.056500px,79.294064px) rotate(0deg)}} #eEol3nXSYRe35 {animation: eEol3nXSYRe35_c_o 3000ms linear infinite normal forwards}@keyframes eEol3nXSYRe35_c_o { 0% {opacity: 1} 30% {opacity: 1} 33.333333% {opacity: 0} 36.666667% {opacity: 1} 100% {opacity: 1}} #eEol3nXSYRe81 {animation: eEol3nXSYRe81_c_o 3000ms linear infinite normal forwards}@keyframes eEol3nXSYRe81_c_o { 0% {opacity: 1} 53.333333% {opacity: 1} 60% {opacity: 0} 66.666667% {opacity: 1} 100% {opacity: 1}} #eEol3nXSYRe122_tr {animation: eEol3nXSYRe122_tr__tr 3000ms linear infinite normal forwards}@keyframes eEol3nXSYRe122_tr__tr { 0% {transform: translate(378.901459px,79.985546px) rotate(0deg)} 43.333333% {transform: translate(378.901459px,79.985546px) rotate(3deg)} 100% {transform: translate(378.901459px,79.985546px) rotate(0deg)}} #eEol3nXSYRe128 {animation: eEol3nXSYRe128_c_o 3000ms linear infinite normal forwards}@keyframes eEol3nXSYRe128_c_o { 0% {opacity: 1} 50% {opacity: 1} 53.333333% {opacity: 0} 56.666667% {opacity: 1} 100% {opacity: 1}}]]></style><g id="eEol3nXSYRe2" clip-path="url(#eEol3nXSYRe153)"><g id="eEol3nXSYRe3"><g id="eEol3nXSYRe4" opacity="0.1"><path id="eEol3nXSYRe5" d="M305,413C401.650000,413,480,389.495000,480,360.500000C480,331.505000,401.650000,308,305,308C208.350000,308,130,331.505000,130,360.500000C130,389.495000,208.350000,413,305,413Z" fill="rgb(245,245,245)" stroke="none" stroke-width="1" stroke-miterlimit="1"></path></g><path id="eEol3nXSYRe6" d="M214.049000,312.834000L205.931000,313.150000L205.777000,304.363000L213.895000,304.047000L214.049000,312.834000Z" fill="rgb(181,91,82)" stroke="none" stroke-width="1" stroke-miterlimit="1"></path><path id="eEol3nXSYRe7" d="M205.424000,311.468000L214.600000,311.468000C214.761000,311.467000,214.919000,311.520000,215.045000,311.621000C215.172000,311.721000,215.261000,311.862000,215.296000,312.020000L216.887000,319.297000C216.923000,319.475000,216.920000,319.658000,216.876000,319.834000C216.832000,320.009000,216.750000,320.173000,216.634000,320.313000C216.519000,320.452000,216.374000,320.564000,216.209000,320.641000C216.045000,320.717000,215.866000,320.755000,215.685000,320.753000C212.475000,320.698000,210.920000,320.508000,206.880000,320.508000C204.394000,320.508000,197.948000,320.771000,194.513000,320.771000C191.078000,320.771000,190.644000,317.372000,192.045000,317.064000C198.373000,315.681000,202.052000,313.783000,204.077000,311.966000C204.449000,311.638000,204.929000,311.461000,205.424000,311.468000L205.424000,311.468000Z" fill="rgb(38,50,56)" stroke="none" stroke-width="1" stroke-miterlimit="1"></path><path id="eEol3nXSYRe8" d="M205.777000,304.372000L205.850000,308.458000L213.968000,308.106000L213.895000,304.056000L205.777000,304.372000Z" opacity="0.2" fill="rgb(0,0,0)" stroke="none" stroke-width="1" stroke-miterlimit="1"></path><path id="eEol3nXSYRe9" d="M193.807000,135.857000C191.999000,145.602000,194.078000,193.234000,196.836000,214.270000C200.506000,242.204000,204.303000,307.066000,204.303000,307.066000L215.151000,306.415000C215.151000,306.415000,217.863000,238.109000,215.648000,215.681000C216.904000,186.816000,220.014000,136.400000,220.014000,136.400000L193.807000,135.857000Z" fill="rgb(73,154,250)" stroke="none" stroke-width="1" stroke-miterlimit="1"></path><path id="eEol3nXSYRe10" d="M218.216000,167.814000C218.595000,160.500000,213.415000,154.001000,211.327000,167.814000C210.007000,176.592000,212.737000,191.978000,216.317000,202.844000C216.869000,191.535000,217.574000,178.942000,218.216000,167.814000Z" opacity="0.2" fill="rgb(0,0,0)" stroke="none" stroke-width="1" stroke-miterlimit="1"></path><path id="eEol3nXSYRe11" d="M273.695000,285.506000L268.415000,290.550000L261.265000,282.884000L266.535000,277.849000L273.695000,285.506000Z" fill="rgb(181,91,82)" stroke="none" stroke-width="1" stroke-miterlimit="1"></path><path id="eEol3nXSYRe12" d="M267.032000,290.685000L272.456000,283.255000C272.544000,283.125000,272.678000,283.035000,272.831000,283.001000C272.984000,282.967000,273.144000,282.993000,273.278000,283.074000L279.606000,286.798000C279.762000,286.902000,279.896000,287.035000,279.999000,287.191000C280.102000,287.348000,280.172000,287.523000,280.206000,287.707000C280.240000,287.891000,280.236000,288.080000,280.195000,288.262000C280.154000,288.445000,280.077000,288.617000,279.968000,288.769000C278.043000,291.327000,276.985000,292.457000,274.607000,295.730000C273.143000,297.737000,271.452000,300.503000,269.436000,303.287000C267.421000,306.071000,264.663000,304.074000,265.260000,302.727000C267.972000,296.679000,266.824000,294.997000,266.679000,292.114000C266.633000,291.612000,266.757000,291.108000,267.032000,290.685000L267.032000,290.685000Z" fill="rgb(38,50,56)" stroke="none" stroke-width="1" stroke-miterlimit="1"></path><path id="eEol3nXSYRe13" d="M261.265000,282.893000L264.953000,286.834000L270.187000,281.754000L266.544000,277.849000L261.265000,282.893000Z" opacity="0.2" fill="rgb(0,0,0)" stroke="none" stroke-width="1" stroke-miterlimit="1"></path><path id="eEol3nXSYRe14" d="M206.392000,136.120000C206.392000,136.120000,218.071000,197.592000,221.109000,221.457000C222.917000,235.713000,262.783000,287.006000,262.783000,287.006000L269.590000,279.838000C269.590000,279.838000,255,242.285000,237.426000,220.011000C236.730000,193.903000,239.695000,150.927000,229.606000,136.599000L206.392000,136.120000Z" fill="rgb(73,154,250)" stroke="none" stroke-width="1" stroke-miterlimit="1"></path><g id="eEol3nXSYRe15_tr" transform="translate(193.271217,87.800750) rotate(0)"><g id="eEol3nXSYRe15" transform="translate(-193.271217,-87.800750)"><path id="eEol3nXSYRe16" d="M196.140000,88.985000C196.140000,94.264300,195.896000,99.444300,195.507000,104.678000C195.118000,109.913000,194.603000,115.120000,193.762000,120.363000L193.608000,121.348000L193.401000,122.460000C193.244000,123.189000,193.072000,123.903000,192.885000,124.603000C192.488000,125.986000,191.981000,127.315000,191.529000,128.598000C190.540000,131.115000,189.418000,133.578000,188.166000,135.975000C185.702000,140.663000,182.895000,145.162000,179.768000,149.435000C179.438000,149.879000,178.956000,150.184000,178.414000,150.293000C177.873000,150.403000,177.310000,150.309000,176.834000,150.028000C176.358000,149.748000,176.001000,149.302000,175.834000,148.776000C175.667000,148.249000,175.699000,147.679000,175.926000,147.175000L175.926000,147.121000C178.051000,142.529000,180.112000,137.819000,181.911000,133.154000C182.815000,130.822000,183.619000,128.463000,184.306000,126.148000C184.632000,124.991000,184.921000,123.843000,185.147000,122.722000C185.265000,122.162000,185.346000,121.610000,185.427000,121.068000L185.518000,120.263000L185.608000,119.359000C186.069000,114.351000,186.340000,109.271000,186.593000,104.181000C186.847000,99.091700,186.964000,93.957000,187.109000,88.912700L187.109000,88.867400C187.128000,87.668700,187.622000,86.526600,188.484000,85.692500C189.345000,84.858400,190.502000,84.400600,191.701000,84.419800C192.900000,84.438900,194.042000,84.933600,194.876000,85.794800C195.710000,86.656000,196.168000,87.813300,196.149000,89.012100L196.140000,88.985000Z" fill="rgb(181,91,82)" stroke="none" stroke-width="1" stroke-miterlimit="1"></path><path id="eEol3nXSYRe17" d="M177.102000,146.009000L171.542000,150.737000L179.334000,153.919000C179.334000,153.919000,181.748000,150.240000,180.627000,146.751000L177.102000,146.009000Z" fill="rgb(181,91,82)" stroke="none" stroke-width="1" stroke-miterlimit="1"></path><path id="eEol3nXSYRe18" d="M172.527000,157.951000L176.080000,158.394000C176.475000,158.443000,176.875000,158.361000,177.218000,158.160000C177.561000,157.959000,177.828000,157.650000,177.978000,157.282000L179.334000,153.919000L171.542000,150.737000L170.954000,155.953000C170.901000,156.426000,171.036000,156.901000,171.330000,157.275000C171.625000,157.649000,172.055000,157.892000,172.527000,157.951000Z" fill="rgb(181,91,82)" stroke="none" stroke-width="1" stroke-miterlimit="1"></path><path id="eEol3nXSYRe19" d="M193.193000,82.376700C182.092000,85.622100,183.520000,105.817000,183.520000,105.817000L199.304000,110.066000C199.304000,110.066000,201.926000,95.276800,201.691000,89.970300C201.456000,84.455900,199.313000,80.595800,193.193000,82.376700Z" fill="rgb(73,154,250)" stroke="none" stroke-width="1" stroke-miterlimit="1"></path></g></g><path id="eEol3nXSYRe20" d="M189.604000,87.629000C189.107000,107.879000,193.762000,122.659000,193.817000,135.857000L229.606000,136.599000C229.344000,123.382000,229.452000,114.758000,235.139000,91.073200C235.386000,90.041600,235.415000,88.969800,235.225000,87.926200C235.034000,86.882600,234.629000,85.890200,234.033000,85.012300C233.438000,84.134400,232.666000,83.390300,231.766000,82.827500C230.867000,82.264800,229.860000,81.895700,228.811000,81.743900C226.668000,81.427500,224.291000,81.129200,221.877000,80.966500C216.468000,80.465300,211.030000,80.350500,205.605000,80.623000C201.790000,80.894200,197.686000,81.454700,194.757000,81.897600C193.365000,82.104600,192.090000,82.790100,191.149000,83.836200C190.209000,84.882300,189.662000,86.223500,189.604000,87.629000L189.604000,87.629000Z" fill="rgb(73,154,250)" stroke="none" stroke-width="1" stroke-miterlimit="1"></path><path id="eEol3nXSYRe21" d="M222.962000,106.342000L212.349000,106.269000C212.243000,106.274000,212.138000,106.256000,212.040000,106.216000C211.942000,106.176000,211.854000,106.115000,211.782000,106.038000C211.710000,105.960000,211.655000,105.868000,211.622000,105.768000C211.589000,105.667000,211.578000,105.561000,211.590000,105.456000L212.177000,100.430000C212.215000,100.205000,212.332000,100.002000,212.505000,99.854500C212.679000,99.707300,212.899000,99.626100,213.126000,99.625100L223.730000,99.697400C223.836000,99.691400,223.941000,99.708500,224.039000,99.747500C224.137000,99.786500,224.225000,99.846400,224.297000,99.923000C224.369000,99.999700,224.424000,100.091000,224.457000,100.191000C224.491000,100.291000,224.502000,100.397000,224.490000,100.502000L223.902000,105.537000C223.866000,105.761000,223.751000,105.964000,223.579000,106.112000C223.407000,106.259000,223.188000,106.340000,222.962000,106.342000L222.962000,106.342000Z" fill="rgb(255,255,255)" stroke="none" stroke-width="1" stroke-miterlimit="1"></path><path id="eEol3nXSYRe22" d="M205.659000,80.632000C205.659000,80.632000,199.819000,84.718100,205.994000,94.969500C211.063000,90.038700,216.376000,85.365200,221.913000,80.966500L205.659000,80.632000Z" opacity="0.4" fill="rgb(255,255,255)" stroke="none" stroke-width="1" stroke-miterlimit="1"></path><path id="eEol3nXSYRe23" d="M230.184000,134.510000L231.739000,137.756000C231.856000,138,231.558000,138.253000,231.142000,138.244000L193.599000,137.457000C193.283000,137.457000,193.020000,137.286000,193.002000,137.078000L192.740000,133.869000C192.740000,133.652000,193.011000,133.471000,193.364000,133.471000L229.614000,134.230000C229.725000,134.223000,229.836000,134.246000,229.936000,134.295000C230.036000,134.344000,230.121000,134.418000,230.184000,134.510000Z" fill="rgb(38,50,56)" stroke="none" stroke-width="1" stroke-miterlimit="1"></path><path id="eEol3nXSYRe24" d="M225.239000,138.461000L226.207000,138.461000C226.396000,138.461000,226.550000,138.361000,226.541000,138.244000L226.170000,134.067000C226.170000,133.950000,225.990000,133.841000,225.800000,133.841000L224.823000,133.841000C224.634000,133.841000,224.489000,133.932000,224.498000,134.058000L224.860000,138.226000C224.878000,138.361000,225.040000,138.461000,225.239000,138.461000Z" fill="rgb(73,154,250)" stroke="none" stroke-width="1" stroke-miterlimit="1"></path><path id="eEol3nXSYRe25" d="M196.321000,137.864000L197.297000,137.864000C197.487000,137.864000,197.640000,137.774000,197.631000,137.647000L197.261000,133.471000C197.261000,133.353000,197.080000,133.254000,196.890000,133.245000L195.914000,133.245000C195.724000,133.245000,195.570000,133.335000,195.588000,133.462000L195.950000,137.629000C195.968000,137.756000,196.131000,137.855000,196.321000,137.864000Z" fill="rgb(73,154,250)" stroke="none" stroke-width="1" stroke-miterlimit="1"></path><path id="eEol3nXSYRe26" d="M210.776000,138.163000L211.752000,138.163000C211.942000,138.163000,212.095000,138.072000,212.086000,137.946000L211.716000,133.778000C211.716000,133.652000,211.535000,133.552000,211.345000,133.552000L210.369000,133.552000C210.179000,133.552000,210.034000,133.652000,210.043000,133.769000L210.405000,137.946000C210.423000,138.054000,210.586000,138.163000,210.776000,138.163000Z" fill="rgb(73,154,250)" stroke="none" stroke-width="1" stroke-miterlimit="1"></path><path id="eEol3nXSYRe27" d="M235.130000,88.135200C237.760000,91.615600,240.219000,95.123100,242.606000,98.766200C243.790000,100.574000,244.965000,102.382000,246.077000,104.335000C247.275000,106.310000,248.350000,108.357000,249.296000,110.464000C249.582000,111.121000,249.829000,111.794000,250.037000,112.480000C250.187000,113.009000,250.290000,113.551000,250.344000,114.098000C250.359000,114.318000,250.359000,114.538000,250.344000,114.758000L250.344000,115.165000C250.328000,115.344000,250.301000,115.522000,250.263000,115.698000L250.200000,115.978000L250.200000,116.105000L250.200000,116.204000L250.127000,116.403000C249.702000,117.488000,249.368000,118.582000,248.862000,119.631000C247.945000,121.780000,246.844000,123.846000,245.571000,125.805000C244.260000,127.783000,242.725000,129.603000,240.997000,131.229000C240.116000,132.055000,239.170000,132.808000,238.167000,133.480000C237.652000,133.814000,237.128000,134.140000,236.585000,134.438000L235.726000,134.854000C235.401000,134.999000,235.166000,135.098000,234.696000,135.270000L232.978000,131.148000C233.101000,131.028000,233.230000,130.916000,233.367000,130.813000L233.864000,130.379000C234.199000,130.081000,234.524000,129.755000,234.841000,129.421000C235.485000,128.730000,236.088000,128.003000,236.649000,127.242000C237.753000,125.690000,238.715000,124.041000,239.523000,122.315000C239.903000,121.411000,240.319000,120.562000,240.635000,119.603000C240.952000,118.645000,241.304000,117.795000,241.593000,116.891000C241.883000,115.987000,242.109000,114.993000,242.389000,114.053000L242.389000,113.881000L242.389000,113.791000L242.389000,113.872000L242.389000,114.053000C242.389000,114.161000,242.344000,114.324000,242.335000,114.387000C242.330000,114.457000,242.330000,114.526000,242.335000,114.595000L242.335000,114.857000C242.335000,115.065000,242.335000,115.002000,242.335000,114.912000C242.335000,114.821000,242.082000,114.333000,241.892000,113.953000C241.069000,112.408000,239.966000,110.627000,238.836000,108.927000C237.706000,107.228000,236.531000,105.483000,235.329000,103.774000C232.933000,100.348000,230.465000,96.885900,228.042000,93.486900L235.130000,88.135200Z" fill="rgb(181,91,82)" stroke="none" stroke-width="1" stroke-miterlimit="1"></path><g id="eEol3nXSYRe28_tr" transform="translate(215.056500,79.294064) rotate(0)"><g id="eEol3nXSYRe28" transform="translate(-215.056500,-79.294064)"><path id="eEol3nXSYRe29" d="M227.255000,40.693300C220.430000,34.283900,209.175000,33.054500,204.963000,39.726000C200.750000,46.397500,203.155000,53.448700,194.513000,60.843400C188.637000,65.896800,192.994000,81.382300,226.514000,79.963000C242.379000,79.294100,237.010000,62.787000,236.585000,54.985500C236.160000,47.184000,236.133000,37.637700,227.255000,40.693300Z" fill="rgb(38,50,56)" stroke="none" stroke-width="1" stroke-miterlimit="1"></path><path id="eEol3nXSYRe30" d="M220.684000,62.633400C219.554000,67.840400,218.324000,77.404700,221.913000,80.966500C216.270000,83.189500,211.066000,86.397300,206.545000,90.440400C202.577000,83.154200,205.641000,80.623000,205.641000,80.623000C211.499000,79.357400,211.445000,75.027200,210.514000,70.941100L220.684000,62.633400Z" fill="rgb(181,91,82)" stroke="none" stroke-width="1" stroke-miterlimit="1"></path><path id="eEol3nXSYRe31" d="M219.581000,63.537400C219.440000,66.648700,218.636000,69.693900,217.222000,72.468900C216.236000,74.376300,213.606000,75.180900,210.957000,75.334600C211.045000,73.856900,210.901000,72.374600,210.532000,70.941100L219.581000,63.537400Z" opacity="0.2" fill="rgb(0,0,0)" stroke="none" stroke-width="1" stroke-miterlimit="1"></path><path id="eEol3nXSYRe32" d="M229.154000,56.260200C226.442000,64.595100,225.538000,68.174900,220.114000,71.429300C212.023000,76.319900,202.377000,71.212300,202.504000,62.253700C202.630000,54.190000,207.024000,41.922700,216.127000,40.666200C218.143000,40.374300,220.200000,40.603300,222.102000,41.331400C224.005000,42.059500,225.689000,43.262500,226.995000,44.825700C228.301000,46.388900,229.184000,48.260400,229.562000,50.261900C229.940000,52.263500,229.800000,54.328400,229.154000,56.260200L229.154000,56.260200Z" fill="rgb(181,91,82)" stroke="none" stroke-width="1" stroke-miterlimit="1"></path><path id="eEol3nXSYRe33" d="M207.051000,45.312800C211.571000,46.587400,222.582000,47.536600,224.788000,46.216800C222.718000,49.398900,224.688000,58.095300,227.888000,60.201700C232.201000,56.739300,233.159000,48.368300,229.172000,44.218900C225.186000,40.069600,212.584000,35.106600,207.051000,45.312800Z" fill="rgb(38,50,56)" stroke="none" stroke-width="1" stroke-miterlimit="1"></path><path id="eEol3nXSYRe34" d="M230.420000,61.358700C230.134000,62.152800,229.693000,62.881800,229.122000,63.502800C228.550000,64.123800,227.861000,64.624300,227.093000,64.974700C225.050000,65.878700,223.694000,64.143000,223.983000,62.036700C224.245000,60.147400,225.628000,57.390200,227.816000,57.354000C228.288000,57.360500,228.751000,57.483200,229.165000,57.711300C229.578000,57.939300,229.929000,58.265700,230.187000,58.661600C230.444000,59.057400,230.600000,59.510600,230.640000,59.981000C230.681000,60.451400,230.605000,60.924600,230.420000,61.358700L230.420000,61.358700Z" fill="rgb(181,91,82)" stroke="none" stroke-width="1" stroke-miterlimit="1"></path><g id="eEol3nXSYRe35"><path id="eEol3nXSYRe36" d="M216.146000,55.564000C215.965000,56.251100,215.459000,56.721200,215.007000,56.603600C214.555000,56.486100,214.338000,55.835200,214.509000,55.148200C214.681000,54.461200,215.196000,53.991100,215.648000,54.108600C216.100000,54.226100,216.317000,54.877000,216.146000,55.564000Z" fill="rgb(38,50,56)" stroke="none" stroke-width="1" stroke-miterlimit="1"></path><path id="eEol3nXSYRe37" d="M208.353000,53.575200C208.181000,54.271300,207.675000,54.732400,207.223000,54.614800C206.771000,54.497300,206.545000,53.855500,206.726000,53.159400C206.907000,52.463300,207.404000,52.011300,207.856000,52.119800C208.308000,52.228300,208.534000,52.888200,208.353000,53.575200Z" fill="rgb(38,50,56)" stroke="none" stroke-width="1" stroke-miterlimit="1"></path><path id="eEol3nXSYRe38" d="M208.046000,52.210200L206.509000,51.306200C206.509000,51.306200,207.033000,52.824900,208.046000,52.210200Z" fill="rgb(38,50,56)" stroke="none" stroke-width="1" stroke-miterlimit="1"></path><path id="eEol3nXSYRe39" d="M215.838000,54.199000L214.301000,53.295000C214.301000,53.295000,214.817000,54.813700,215.838000,54.199000Z" fill="rgb(38,50,56)" stroke="none" stroke-width="1" stroke-miterlimit="1"></path></g><path id="eEol3nXSYRe40" d="M210.080000,55.283800C209.068000,56.700600,207.866000,57.972000,206.509000,59.062500C206.795000,59.402000,207.152000,59.675000,207.555000,59.862300C207.958000,60.049700,208.397000,60.146900,208.841000,60.147300L210.080000,55.283800Z" fill="rgb(160,39,36)" stroke="none" stroke-width="1" stroke-miterlimit="1"></path><path id="eEol3nXSYRe41" d="M210.514000,62.850300C210.482000,62.823100,210.459000,62.787500,210.446000,62.747600C210.433000,62.707700,210.432000,62.665000,210.442000,62.624300C210.450000,62.598100,210.463000,62.573800,210.481000,62.552800C210.499000,62.531800,210.520000,62.514500,210.545000,62.501900C210.569000,62.489300,210.596000,62.481700,210.623000,62.479400C210.650000,62.477100,210.678000,62.480300,210.704000,62.488700C211.548000,62.753400,212.443000,62.816000,213.316000,62.671500C214.189000,62.527100,215.016000,62.179600,215.730000,61.657000C215.772000,61.621100,215.827000,61.603200,215.882000,61.607500C215.937000,61.611700,215.988000,61.637700,216.024000,61.679600C216.060000,61.721600,216.078000,61.776100,216.073000,61.831200C216.069000,61.886300,216.043000,61.937500,216.001000,61.973400C215.237000,62.550200,214.345000,62.933600,213.400000,63.091000C212.456000,63.248400,211.487000,63.175100,210.577000,62.877400L210.514000,62.850300Z" fill="rgb(38,50,56)" stroke="none" stroke-width="1" stroke-miterlimit="1"></path><path id="eEol3nXSYRe42" d="M220.394000,52.391000C220.339000,52.342100,220.293000,52.284000,220.259000,52.219300C220.072000,51.729300,219.771000,51.290800,219.381000,50.940300C218.991000,50.589700,218.524000,50.337100,218.017000,50.203300C217.908000,50.184200,217.811000,50.122400,217.747000,50.031700C217.683000,49.941000,217.659000,49.828800,217.678000,49.719700C217.697000,49.610600,217.759000,49.513600,217.849000,49.450000C217.940000,49.386500,218.052000,49.361500,218.161000,49.380700C218.806000,49.540200,219.403000,49.851500,219.903000,50.288700C220.404000,50.725800,220.792000,51.276200,221.036000,51.893800C221.068000,51.978800,221.072000,52.071800,221.047000,52.159100C221.022000,52.246500,220.970000,52.323600,220.899000,52.379200C220.827000,52.434800,220.739000,52.465900,220.648000,52.468000C220.558000,52.470200,220.469000,52.443200,220.394000,52.391000L220.394000,52.391000Z" fill="rgb(38,50,56)" stroke="none" stroke-width="1" stroke-miterlimit="1"></path><path id="eEol3nXSYRe43" d="M206.816000,49.181800L206.762000,49.127600C206.684000,49.049600,206.640000,48.944000,206.640000,48.833800C206.640000,48.723600,206.684000,48.618000,206.762000,48.540000C207.239000,48.092100,207.815000,47.763000,208.443000,47.579200C209.072000,47.395500,209.734000,47.362300,210.378000,47.482300C210.431000,47.495900,210.482000,47.520200,210.526000,47.553600C210.571000,47.587100,210.608000,47.629100,210.635000,47.677100C210.663000,47.725100,210.681000,47.778200,210.688000,47.833200C210.695000,47.888300,210.691000,47.944200,210.676000,47.997600C210.648000,48.104200,210.580000,48.195600,210.485000,48.251500C210.390000,48.307400,210.276000,48.323400,210.170000,48.295900C209.654000,48.198700,209.123000,48.225900,208.619000,48.375300C208.116000,48.524600,207.656000,48.791800,207.277000,49.154700C207.211000,49.204300,207.133000,49.233300,207.051000,49.238200C206.969000,49.243000,206.887000,49.223400,206.816000,49.181800Z" fill="rgb(38,50,56)" stroke="none" stroke-width="1" stroke-miterlimit="1"></path></g></g><path id="eEol3nXSYRe44" d="M237.091000,134.203000L230.121000,139.130000L226.994000,132.006000C226.994000,132.006000,231.224000,129.737000,234.560000,131.256000L237.091000,134.203000Z" fill="rgb(181,91,82)" stroke="none" stroke-width="1" stroke-miterlimit="1"></path><path id="eEol3nXSYRe45" d="M225.267000,139.717000L223.522000,137.286000C223.191000,136.817000,223.056000,136.237000,223.145000,135.670000C223.235000,135.103000,223.542000,134.593000,224.001000,134.248000L226.993000,132.006000L230.121000,139.130000L228.205000,140.314000C227.731000,140.605000,227.164000,140.706000,226.618000,140.595000C226.073000,140.484000,225.590000,140.171000,225.267000,139.717000L225.267000,139.717000Z" fill="rgb(181,91,82)" stroke="none" stroke-width="1" stroke-miterlimit="1"></path><path id="eEol3nXSYRe46" d="M221.180000,85.983700C218.812000,95.394300,233.420000,111.504000,233.420000,111.504000L245.706000,98.748200C245.706000,98.748200,240.092000,86.761100,232.760000,83.000500C227.644000,80.378900,222.229000,81.834300,221.180000,85.983700Z" fill="rgb(73,154,250)" stroke="none" stroke-width="1" stroke-miterlimit="1"></path><path id="eEol3nXSYRe47" d="M200.135000,111.124000C200.069000,111.123000,200.005000,111.103000,199.950000,111.066000C199.895000,111.029000,199.853000,110.977000,199.828000,110.916000C199.798000,110.836000,199.802000,110.747000,199.837000,110.669000C199.873000,110.591000,199.938000,110.531000,200.017000,110.500000L201.428000,109.958000C202.749000,109.470000,203.889000,108.591000,204.697000,107.437000C205.505000,106.284000,205.941000,104.911000,205.948000,103.503000L206.047000,90.286700C206.076000,89.280500,205.758000,88.295000,205.147000,87.495100C204.536000,86.695200,203.669000,86.129300,202.691000,85.892100C201.712000,85.655000,200.682000,85.760900,199.773000,86.192300C198.863000,86.623600,198.130000,87.354200,197.694000,88.261800L191.583000,100.014000C190.927000,101.254000,190.662000,102.665000,190.823000,104.059000C190.984000,105.454000,191.565000,106.766000,192.487000,107.824000L193.482000,108.954000C193.515000,108.985000,193.542000,109.023000,193.560000,109.065000C193.577000,109.107000,193.586000,109.152000,193.586000,109.198000C193.585000,109.244000,193.575000,109.289000,193.555000,109.330000C193.536000,109.372000,193.508000,109.408000,193.474000,109.438000C193.439000,109.468000,193.399000,109.491000,193.355000,109.504000C193.312000,109.518000,193.266000,109.522000,193.220000,109.516000C193.175000,109.510000,193.131000,109.495000,193.092000,109.472000C193.053000,109.448000,193.020000,109.417000,192.993000,109.379000L191.999000,108.150000C190.981000,107,190.338000,105.567000,190.155000,104.042000C189.973000,102.518000,190.259000,100.973000,190.977000,99.616000L197.089000,87.864000C197.611000,86.861000,198.456000,86.063100,199.487000,85.598700C200.518000,85.134300,201.675000,85.030500,202.772000,85.304100C203.870000,85.577600,204.843000,86.212500,205.535000,87.106500C206.228000,88.000600,206.599000,89.101700,206.590000,90.232500L206.490000,103.449000C206.483000,104.982000,206.011000,106.477000,205.136000,107.736000C204.261000,108.995000,203.025000,109.959000,201.590000,110.500000L200.180000,111.034000L200.135000,111.124000Z" fill="rgb(38,50,56)" stroke="none" stroke-width="1" stroke-miterlimit="1"></path><path id="eEol3nXSYRe48" d="M206.274000,93.233800C206.190000,93.231600,206.110000,93.197900,206.049000,93.139200C205.989000,93.080600,205.953000,93.001400,205.948000,92.917400C205.820000,91.872800,205.379000,90.891600,204.682000,90.103100C203.985000,89.314600,203.065000,88.755800,202.044000,88.500300C201.023000,88.244800,199.949000,88.304700,198.963000,88.672000C197.976000,89.039300,197.125000,89.696900,196.520000,90.557900C196.499000,90.595300,196.471000,90.628300,196.437000,90.654900C196.404000,90.681500,196.366000,90.701200,196.324000,90.713000C196.283000,90.724700,196.240000,90.728200,196.198000,90.723400C196.155000,90.718500,196.114000,90.705300,196.077000,90.684500C196.039000,90.663700,196.006000,90.635800,195.980000,90.602300C195.953000,90.568800,195.933000,90.530400,195.922000,90.489200C195.910000,90.448100,195.906000,90.405000,195.911000,90.362600C195.916000,90.320100,195.929000,90.278900,195.950000,90.241500C196.623000,89.247300,197.585000,88.483800,198.706000,88.054200C199.826000,87.624700,201.052000,87.549800,202.217000,87.839700C203.382000,88.129700,204.429000,88.770500,205.218000,89.675500C206.007000,90.580400,206.498000,91.705800,206.626000,92.899300C206.627000,92.985000,206.594000,93.067400,206.535000,93.129600C206.476000,93.191900,206.396000,93.229100,206.310000,93.233800L206.274000,93.233800Z" fill="rgb(38,50,56)" stroke="none" stroke-width="1" stroke-miterlimit="1"></path><path id="eEol3nXSYRe49" d="M202.748000,86.010800C202.694000,86.010100,202.642000,85.996700,202.595000,85.971500C202.548000,85.946300,202.507000,85.910200,202.477000,85.866200C202.311000,85.499600,202.226000,85.102100,202.226000,84.700000C202.226000,84.297900,202.311000,83.900400,202.477000,83.533800C202.711000,82.804700,203.107000,82.137700,203.634000,81.582200C204.162000,81.026700,204.807000,80.596900,205.523000,80.324600C205.563000,80.309100,205.605000,80.302000,205.648000,80.303700C205.690000,80.305500,205.732000,80.316000,205.770000,80.334700C205.809000,80.353400,205.842000,80.379800,205.870000,80.412300C205.897000,80.444900,205.918000,80.482700,205.930000,80.523500C205.956000,80.603900,205.950000,80.691300,205.913000,80.767200C205.876000,80.843100,205.811000,80.901600,205.731000,80.930300C205.118000,81.181700,204.567000,81.563400,204.116000,82.048800C203.665000,82.534200,203.324000,83.111900,203.119000,83.741800C202.984000,84.021700,202.906000,84.325600,202.888000,84.635800C202.871000,84.946100,202.916000,85.256700,203.019000,85.549800C203.042000,85.585900,203.058000,85.626300,203.066000,85.668700C203.074000,85.711000,203.073000,85.754500,203.064000,85.796500C203.054000,85.838600,203.037000,85.878400,203.012000,85.913600C202.988000,85.948800,202.956000,85.978800,202.920000,86.001800C202.864000,86.018200,202.805000,86.021300,202.748000,86.010800Z" fill="rgb(38,50,56)" stroke="none" stroke-width="1" stroke-miterlimit="1"></path><path id="eEol3nXSYRe50" d="M199.394000,110.627000C199.240000,111.214000,199.394000,111.775000,199.828000,111.874000C200.262000,111.974000,200.660000,111.567000,200.804000,110.970000C200.949000,110.374000,200.750000,109.813000,200.361000,109.723000C199.973000,109.632000,199.539000,110.030000,199.394000,110.627000Z" fill="rgb(38,50,56)" stroke="none" stroke-width="1" stroke-miterlimit="1"></path><path id="eEol3nXSYRe51" d="M225.050000,95.014600C225.339000,96.379700,226.315000,97.319800,227.210000,97.130000C228.105000,96.940200,228.593000,95.665500,228.295000,94.309500C227.997000,92.953500,227.029000,91.995300,226.134000,92.194200C225.239000,92.393100,224.751000,93.685800,225.050000,95.014600Z" fill="rgb(38,50,56)" stroke="none" stroke-width="1" stroke-miterlimit="1"></path><path id="eEol3nXSYRe52" d="M227.879000,94.589700C227.837000,94.590900,227.796000,94.583900,227.757000,94.569100C227.718000,94.554300,227.683000,94.532000,227.653000,94.503500C227.622000,94.474900,227.598000,94.440700,227.581000,94.402800C227.564000,94.364800,227.555000,94.323900,227.554000,94.282400C227.364000,89.283200,225.465000,83.072800,221.768000,81.237600C221.692000,81.198900,221.634000,81.131600,221.607000,81.050400C221.579000,80.969200,221.585000,80.880500,221.623000,80.803700C221.642000,80.765100,221.667000,80.730500,221.699000,80.702100C221.731000,80.673800,221.769000,80.652200,221.809000,80.638700C221.850000,80.625100,221.893000,80.620000,221.935000,80.623500C221.978000,80.627000,222.019000,80.639100,222.057000,80.659100C226.017000,82.620800,227.997000,88.903600,228.195000,94.219100C228.199000,94.261700,228.194000,94.304600,228.180000,94.345000C228.167000,94.385500,228.144000,94.422700,228.116000,94.454200C228.087000,94.485700,228.051000,94.510700,228.012000,94.527900C227.973000,94.545000,227.931000,94.553700,227.888000,94.553600L227.879000,94.589700Z" fill="rgb(38,50,56)" stroke="none" stroke-width="1" stroke-miterlimit="1"></path><path id="eEol3nXSYRe53" d="M224.082000,95.132200C224.272000,96.298300,225.113000,97.130000,225.963000,96.994400C226.812000,96.858800,227.355000,95.801100,227.165000,94.625900C226.975000,93.450700,226.125000,92.628100,225.276000,92.763700C224.426000,92.899300,223.892000,93.957000,224.082000,95.132200Z" fill="rgb(255,255,255)" stroke="none" stroke-width="1" stroke-miterlimit="1"></path><path id="eEol3nXSYRe54" d="M224.010000,95.231600C224.282000,96.678000,225.041000,97.744700,225.701000,97.618200C226.361000,97.491600,226.659000,96.226000,226.388000,94.779600C226.117000,93.333200,225.357000,92.266500,224.697000,92.393100C224.038000,92.519600,223.730000,93.785200,224.010000,95.231600Z" fill="rgb(38,50,56)" stroke="none" stroke-width="1" stroke-miterlimit="1"></path><path id="eEol3nXSYRe55" d="M192.560000,108.918000C192.415000,109.515000,192.614000,110.075000,193.003000,110.166000C193.392000,110.256000,193.826000,109.867000,193.979000,109.262000C194.133000,108.656000,193.925000,108.114000,193.536000,108.014000C193.148000,107.915000,192.714000,108.331000,192.560000,108.918000Z" fill="rgb(38,50,56)" stroke="none" stroke-width="1" stroke-miterlimit="1"></path><path id="eEol3nXSYRe56" d="M291.584000,35.305400C285.862000,36.326900,285.139000,35.802600,285.066000,31.689400C284.994000,27.576200,282.915000,20.714800,285.808000,18.563300C286.006000,18.375000,286.251000,18.242100,286.517000,18.177800C286.783000,18.113600,287.061000,18.120200,287.323000,18.197000C287.586000,18.273900,287.824000,18.418300,288.013000,18.615800C288.202000,18.813300,288.336000,19.057100,288.402000,19.322700C288.579000,18.871500,288.923000,18.505900,289.362000,18.302100C289.802000,18.098300,290.303000,18.072000,290.762000,18.228800C290.879000,17.379100,291.015000,15.200400,292.570000,14.612800C294.124000,14.025200,295.553000,15.435500,295.553000,15.435500C295.553000,15.435500,295.435000,12.081600,297.695000,12.407100C298.370000,12.514900,298.997000,12.823600,299.493000,13.292800C299.990000,13.762100,300.334000,14.370200,300.480000,15.037700C300.480000,15.037700,301.781000,13.139300,303.544000,13.889600C305.307000,14.640000,304.936000,16.845700,304.936000,16.845700C304.936000,16.845700,306.808000,15.941700,308.200000,16.963200C309.592000,17.984700,308.579000,19.621000,308.579000,19.621000C308.579000,19.621000,309.845000,16.366600,312.259000,18.165500C314.428000,19.792800,312.458000,22.342000,312.458000,22.342000C312.458000,22.342000,314.844000,21.953300,315.423000,23.155600C317.375000,27.250800,309.935000,31.825000,309.691000,38.740600C298.265000,43.061700,291.584000,35.305400,291.584000,35.305400Z" fill="rgb(38,50,56)" stroke="none" stroke-width="1" stroke-miterlimit="1"></path><path id="eEol3nXSYRe57" d="M250.344000,145.214000L246.529000,144.509000L241.485000,149.327000C241.210000,149.588000,240.994000,149.904000,240.849000,150.255000C240.704000,150.605000,240.634000,150.982000,240.644000,151.361000L240.716000,155.302000C240.725000,155.976000,240.985000,156.623000,241.444000,157.116000C241.904000,157.609000,242.531000,157.913000,243.202000,157.969000L244.956000,158.123000C245.594000,158.183000,246.233000,158.016000,246.759000,157.650000C247.285000,157.284000,247.665000,156.744000,247.831000,156.125000L248.735000,152.907000C248.735000,152.907000,253.716000,147.022000,250.344000,145.214000Z" fill="rgb(255,181,115)" stroke="none" stroke-width="1" stroke-miterlimit="1"></path><path id="eEol3nXSYRe58" d="M288.872000,73.128800C286.314000,79.755100,283.765000,86.408600,281.306000,93.080100C278.847000,99.751600,276.406000,106.450000,274.119000,113.040000L273.712000,114.261000L273.432000,115.056000C273.324000,115.355000,273.215000,115.662000,273.116000,115.897000C272.691000,116.973000,272.266000,117.859000,271.841000,118.754000C270.991000,120.562000,270.132000,122.180000,269.265000,123.816000C267.520000,127.071000,265.721000,130.207000,263.904000,133.335000C260.288000,139.600000,256.672000,145.720000,252.929000,151.931000L241.421000,144.771000C245.218000,138.868000,248.879000,132.775000,252.387000,126.691000C254.114000,123.635000,255.813000,120.571000,257.395000,117.533000C258.182000,116.015000,258.941000,114.496000,259.610000,113.013000C259.926000,112.299000,260.243000,111.567000,260.451000,110.970000C260.523000,110.799000,260.550000,110.681000,260.595000,110.563000L260.740000,110.093000L261.156000,108.774000C263.334000,101.831000,265.621000,95.123100,267.827000,88.316000L274.445000,67.967000L288.872000,73.128800Z" fill="rgb(73,154,250)" stroke="none" stroke-width="1" stroke-miterlimit="1"></path><path id="eEol3nXSYRe59" d="M288.872000,73.128800C286.314000,79.755100,283.765000,86.408600,281.306000,93.080100C278.847000,99.751600,276.406000,106.450000,274.119000,113.040000L273.712000,114.261000L273.432000,115.056000C273.324000,115.355000,273.215000,115.662000,273.116000,115.897000C272.691000,116.973000,272.266000,117.859000,271.841000,118.754000C270.991000,120.562000,270.132000,122.180000,269.265000,123.816000C267.520000,127.071000,265.721000,130.207000,263.904000,133.335000C260.288000,139.600000,256.672000,145.720000,252.929000,151.931000L241.421000,144.771000C245.218000,138.868000,248.879000,132.775000,252.387000,126.691000C254.114000,123.635000,255.813000,120.571000,257.395000,117.533000C258.182000,116.015000,258.941000,114.496000,259.610000,113.013000C259.926000,112.299000,260.243000,111.567000,260.451000,110.970000C260.523000,110.799000,260.550000,110.681000,260.595000,110.563000L260.740000,110.093000L261.156000,108.774000C263.334000,101.831000,265.621000,95.123100,267.827000,88.316000L274.445000,67.967000L288.872000,73.128800Z" opacity="0.6" fill="rgb(255,255,255)" stroke="none" stroke-width="1" stroke-miterlimit="1"></path><path id="eEol3nXSYRe60" d="M254.394000,315.084000L246.285000,315.482000L250.118000,294.365000L257.829000,296.137000L254.394000,315.084000Z" fill="rgb(255,181,115)" stroke="none" stroke-width="1" stroke-miterlimit="1"></path><path id="eEol3nXSYRe61" d="M312.566000,315.392000L304.458000,315.392000L304.485000,296.616000L312.584000,296.616000L312.566000,315.392000Z" fill="rgb(255,181,115)" stroke="none" stroke-width="1" stroke-miterlimit="1"></path><path id="eEol3nXSYRe62" d="M303.688000,314.452000L313.569000,314.452000C313.728000,314.449000,313.882000,314.503000,314.005000,314.604000C314.128000,314.705000,314.210000,314.847000,314.238000,315.003000L315.540000,322.235000C315.569000,322.414000,315.558000,322.597000,315.509000,322.772000C315.460000,322.946000,315.374000,323.108000,315.256000,323.245000C315.138000,323.383000,314.992000,323.493000,314.827000,323.569000C314.662000,323.644000,314.483000,323.682000,314.301000,323.681000C311.119000,323.627000,308.805000,323.437000,304.800000,323.437000C302.341000,323.437000,294.856000,323.691000,291.493000,323.691000C288.131000,323.691000,287.787000,320.328000,289.188000,320.020000C295.516000,318.655000,300.280000,316.775000,302.350000,314.976000C302.717000,314.643000,303.193000,314.457000,303.688000,314.452000L303.688000,314.452000Z" fill="rgb(38,50,56)" stroke="none" stroke-width="1" stroke-miterlimit="1"></path><path id="eEol3nXSYRe63" d="M250.118000,294.374000L248.346000,304.137000L256.057000,305.909000L257.829000,296.146000L250.118000,294.374000Z" opacity="0.2" fill="rgb(0,0,0)" stroke="none" stroke-width="1" stroke-miterlimit="1"></path><path id="eEol3nXSYRe64" d="M312.584000,296.616000L304.476000,296.616000L304.476000,306.289000L312.584000,306.289000L312.584000,296.616000Z" opacity="0.2" fill="rgb(0,0,0)" stroke="none" stroke-width="1" stroke-miterlimit="1"></path><path id="eEol3nXSYRe65" d="M319.111000,72.893800C312.783000,101.361000,314.464000,129.457000,313.786000,135.541000L270.511000,132.684000C265.991000,98.332300,271.036000,76.419400,273.901000,67.433600C274.367000,65.950400,275.248000,64.631700,276.440000,63.633600C277.632000,62.635400,279.085000,61.999700,280.627000,61.801700C287.062000,61.096400,293.542000,60.893900,300.009000,61.196000C304.387000,61.457900,308.732000,62.117600,312.990000,63.166700C315.091000,63.647400,316.914000,64.941400,318.062000,66.764900C319.209000,68.588400,319.586000,70.792500,319.111000,72.893800L319.111000,72.893800Z" fill="rgb(73,154,250)" stroke="none" stroke-width="1" stroke-miterlimit="1"></path><path id="eEol3nXSYRe66" d="M306.066000,41.904600C304.638000,47.265300,302.948000,56.757300,305.669000,61.557600C306.094000,62.307900,305.280000,62.949700,305.244000,63.817600C305.144000,66.475300,301.546000,67.270900,295.110000,67.307000C288.673000,67.343200,285.916000,64.658300,287.670000,62.127100C287.939000,61.741300,288.347000,61.475400,288.809000,61.385800C294.839000,60.038800,294.956000,55.310900,294.134000,50.800000L306.066000,41.904600Z" fill="rgb(255,181,115)" stroke="none" stroke-width="1" stroke-miterlimit="1"></path><path id="eEol3nXSYRe67" d="M294.649000,65.833600C296.340000,68.184900,297.412000,70.923600,297.768000,73.797800C304.195000,70.778400,307.260000,63.447000,307.260000,63.447000L305.325000,61.376800C305.325000,61.376800,298.184000,62.723800,294.649000,65.833600Z" opacity="0.4" fill="rgb(0,0,0)" stroke="none" stroke-width="1" stroke-miterlimit="1"></path><path id="eEol3nXSYRe68" d="M294.016000,65.860700C291.649000,67.787000,289.652000,70.127200,288.122000,72.767200C283.629000,69.982900,285.111000,62.045800,285.111000,62.045800L288.772000,61.322600C288.772000,61.322600,290.409000,62.832300,294.016000,65.860700Z" opacity="0.4" fill="rgb(0,0,0)" stroke="none" stroke-width="1" stroke-miterlimit="1"></path><path id="eEol3nXSYRe69" d="M294.305000,65.661800L292.922000,65.797400L290.581000,67.343200C290.432000,68.274400,290.597000,69.228700,291.051000,70.055200C292.411000,70.320800,293.799000,70.415000,295.182000,70.335500C296.110000,69.887300,296.850000,69.125100,297.270000,68.184000L295.553000,65.987200L294.305000,65.661800Z" fill="rgb(38,50,56)" stroke="none" stroke-width="1" stroke-miterlimit="1"></path><path id="eEol3nXSYRe70" d="M294.306000,65.661800C296.043000,67.835400,297.375000,70.303300,298.239000,72.948000C304.666000,69.928700,308.409000,62.714700,308.409000,62.714700L305.308000,60.002700C305.308000,60.002700,297.841000,62.570100,294.306000,65.661800Z" fill="rgb(73,154,250)" stroke="none" stroke-width="1" stroke-miterlimit="1"></path><path id="eEol3nXSYRe71" d="M294.306000,65.661800C291.825000,67.226900,289.655000,69.237500,287.905000,71.592000C283.385000,68.816700,285.112000,61.340600,285.112000,61.340600L288.773000,60.617400C288.773000,60.617400,290.708000,62.651400,294.306000,65.661800Z" fill="rgb(73,154,250)" stroke="none" stroke-width="1" stroke-miterlimit="1"></path><path id="eEol3nXSYRe72" d="M301.204000,45.529700L294.152000,50.791000C294.366000,51.878500,294.484000,52.982600,294.505000,54.090600C297.045000,53.900800,300.697000,51.378600,301.140000,48.738900C301.353000,47.681500,301.374000,46.594700,301.204000,45.529700L301.204000,45.529700Z" opacity="0.2" fill="rgb(0,0,0)" stroke="none" stroke-width="1" stroke-miterlimit="1"></path><path id="eEol3nXSYRe73" d="M307.359000,33.045500C306.337000,41.027800,306.147000,45.701500,301.826000,49.597700C295.327000,55.374300,285.681000,51.053100,284.298000,42.926200C283.050000,35.612800,284.931000,23.788500,292.985000,21.121700C294.759000,20.524000,296.655000,20.389600,298.495000,20.731500C300.335000,21.073300,302.057000,21.880000,303.498000,23.074800C304.938000,24.269700,306.049000,25.813000,306.725000,27.558100C307.400000,29.303200,307.619000,31.192200,307.359000,33.045500L307.359000,33.045500Z" fill="rgb(255,181,115)" stroke="none" stroke-width="1" stroke-miterlimit="1"></path><path id="eEol3nXSYRe74" d="M305.406000,40.259400C303.598000,38.514600,304.728000,30.161700,305.641000,27.766100C301.121000,28.200000,286.513000,28.181900,287.064000,24.150100C287.615000,20.118200,292.931000,16.692100,301.618000,19.521600C308.850000,21.881000,310.658000,25.488000,310.658000,28.435000C310.767000,34.491800,305.406000,40.259400,305.406000,40.259400Z" fill="rgb(38,50,56)" stroke="none" stroke-width="1" stroke-miterlimit="1"></path><path id="eEol3nXSYRe75" d="M310.161000,40.349700C309.302000,41.990400,307.835000,43.229900,306.074000,43.803000C303.769000,44.517200,302.630000,42.392800,303.281000,40.114700C303.860000,38.071600,305.767000,35.224100,308.072000,35.513300C310.377000,35.802600,311.218000,38.315700,310.161000,40.349700Z" fill="rgb(255,181,115)" stroke="none" stroke-width="1" stroke-miterlimit="1"></path><path id="eEol3nXSYRe76" d="M245.706000,301.660000L259.112000,304.616000C259.112000,304.616000,272.148000,253.531000,276.017000,228.563000C277.201000,220.969000,279.950000,210.130000,282.454000,198.731000C285.609000,184.357000,289.577000,168.808000,292.832000,156.631000C296.267000,143.804000,298.816000,134.583000,298.816000,134.583000L270.512000,132.711000C270.512000,132.711000,257.341000,199.526000,254.683000,224.124000C251.907000,249.689000,245.706000,301.660000,245.706000,301.660000Z" fill="rgb(38,50,56)" stroke="none" stroke-width="1" stroke-miterlimit="1"></path><path id="eEol3nXSYRe77" d="M282.453000,198.712000C285.608000,184.339000,289.577000,168.790000,292.831000,156.613000L289.857000,150.285000C282.833000,158.674000,281.034000,184.628000,282.453000,198.712000Z" opacity="0.2" fill="rgb(0,0,0)" stroke="none" stroke-width="1" stroke-miterlimit="1"></path><path id="eEol3nXSYRe78" d="M284,133.579000C284,133.579000,289.857000,201.858000,292.136000,225.498000C294.667000,251.389000,301.456000,304.426000,301.456000,304.426000L315.070000,304.426000C315.070000,304.426000,315.685000,247.944000,313.262000,222.940000C312.918000,173.780000,313.777000,135.550000,313.777000,135.550000L284,133.579000Z" fill="rgb(38,50,56)" stroke="none" stroke-width="1" stroke-miterlimit="1"></path><path id="eEol3nXSYRe79" d="M299.720000,304.743000L317.203000,304.743000L317.203000,299.518000L299.042000,298.514000L299.720000,304.743000Z" fill="rgb(73,154,250)" stroke="none" stroke-width="1" stroke-miterlimit="1"></path><path id="eEol3nXSYRe80" d="M243.952000,301.606000L259.926000,305.131000L261.065000,299.970000L244.341000,295.757000L243.952000,301.606000Z" fill="rgb(73,154,250)" stroke="none" stroke-width="1" stroke-miterlimit="1"></path><g id="eEol3nXSYRe81"><path id="eEol3nXSYRe82" d="M295.688000,34.473700C295.688000,35.124600,295.263000,35.630800,294.838000,35.603700C294.413000,35.576600,294.097000,35.025100,294.142000,34.374300C294.187000,33.723400,294.567000,33.217100,294.992000,33.244300C295.417000,33.271400,295.733000,33.822800,295.688000,34.473700Z" fill="rgb(38,50,56)" stroke="none" stroke-width="1" stroke-miterlimit="1"></path><path id="eEol3nXSYRe83" d="M288.312000,34.021700C288.312000,34.672600,287.887000,35.178800,287.462000,35.151700C287.037000,35.124600,286.721000,34.573100,286.766000,33.922200C286.811000,33.271400,287.191000,32.765100,287.616000,32.792200C288.041000,32.819400,288.357000,33.334600,288.312000,34.021700Z" fill="rgb(38,50,56)" stroke="none" stroke-width="1" stroke-miterlimit="1"></path></g><path id="eEol3nXSYRe84" d="M290.002000,34.473800C289.090000,36.413100,287.920000,38.219500,286.521000,39.843500C287.597000,41.000600,289.595000,40.639000,289.595000,40.639000L290.002000,34.473800Z" fill="rgb(237,137,62)" stroke="none" stroke-width="1" stroke-miterlimit="1"></path><path id="eEol3nXSYRe85" d="M292.235000,42.564500C292.968000,42.523200,293.684000,42.333700,294.342000,42.007400C294.999000,41.681100,295.583000,41.224800,296.059000,40.666100C296.093000,40.630800,296.112000,40.583900,296.112000,40.535100C296.112000,40.486200,296.093000,40.439300,296.059000,40.404000C296.022000,40.369700,295.974000,40.350600,295.923000,40.350600C295.873000,40.350600,295.825000,40.369700,295.788000,40.404000C295.251000,41.016500,294.578000,41.494300,293.823000,41.799000C293.067000,42.103600,292.251000,42.226500,291.440000,42.157700C291.415000,42.155200,291.389000,42.157700,291.365000,42.165000C291.341000,42.172300,291.319000,42.184300,291.300000,42.200300C291.281000,42.216200,291.265000,42.235900,291.253000,42.258100C291.241000,42.280200,291.234000,42.304500,291.232000,42.329500C291.229000,42.380800,291.247000,42.431100,291.280000,42.469800C291.314000,42.508600,291.361000,42.532800,291.412000,42.537400C291.686000,42.563100,291.961000,42.572100,292.235000,42.564500L292.235000,42.564500Z" fill="rgb(38,50,56)" stroke="none" stroke-width="1" stroke-miterlimit="1"></path><path id="eEol3nXSYRe86" d="M297.487000,32.213700C297.551000,32.206400,297.613000,32.184700,297.668000,32.150400C297.754000,32.094900,297.814000,32.007700,297.836000,31.907900C297.858000,31.808100,297.840000,31.703600,297.786000,31.617100C297.463000,31.097000,297.020000,30.661500,296.495000,30.347000C295.970000,30.032600,295.377000,29.848100,294.766000,29.809100C294.674000,29.823200,294.591000,29.869700,294.530000,29.940200C294.470000,30.010700,294.437000,30.100400,294.437000,30.193300C294.437000,30.286100,294.470000,30.375900,294.530000,30.446400C294.591000,30.516900,294.674000,30.563400,294.766000,30.577500C295.249000,30.613100,295.716000,30.762800,296.129000,31.014300C296.542000,31.265800,296.890000,31.611800,297.144000,32.023900C297.177000,32.084500,297.227000,32.134400,297.288000,32.168000C297.349000,32.201600,297.418000,32.217400,297.487000,32.213700L297.487000,32.213700Z" fill="rgb(38,50,56)" stroke="none" stroke-width="1" stroke-miterlimit="1"></path><path id="eEol3nXSYRe87" d="M284.668000,31.246500C284.731000,31.242100,284.792000,31.222500,284.845000,31.189400C284.899000,31.156400,284.944000,31.110800,284.976000,31.056700C285.206000,30.636600,285.533000,30.276800,285.929000,30.006600C286.325000,29.736500,286.779000,29.563500,287.254000,29.501800C287.355000,29.492600,287.448000,29.445500,287.515000,29.369900C287.582000,29.294300,287.618000,29.196000,287.615000,29.095000C287.608000,28.993400,287.562000,28.898700,287.486000,28.831100C287.410000,28.763500,287.310000,28.728400,287.209000,28.733400C286.602000,28.806700,286.021000,29.024800,285.516000,29.369400C285.011000,29.713900,284.596000,30.174800,284.307000,30.713100C284.258000,30.800700,284.246000,30.904100,284.273000,31.000600C284.300000,31.097100,284.364000,31.179000,284.451000,31.228400C284.520000,31.259200,284.596000,31.265600,284.668000,31.246500Z" fill="rgb(38,50,56)" stroke="none" stroke-width="1" stroke-miterlimit="1"></path><path id="eEol3nXSYRe88" d="M300.949000,315.862000C301.669000,315.845000,302.385000,315.748000,303.083000,315.573000C303.119000,315.564000,303.153000,315.545000,303.178000,315.518000C303.204000,315.490000,303.221000,315.456000,303.227000,315.419000C303.237000,315.384000,303.235000,315.346000,303.222000,315.312000C303.209000,315.278000,303.186000,315.249000,303.155000,315.229000C302.866000,315.039000,300.317000,313.421000,299.394000,313.891000C299.295000,313.943000,299.210000,314.021000,299.150000,314.116000C299.090000,314.211000,299.056000,314.321000,299.051000,314.434000C299.019000,314.620000,299.034000,314.811000,299.096000,314.990000C299.158000,315.168000,299.263000,315.328000,299.404000,315.455000C299.856000,315.765000,300.403000,315.909000,300.949000,315.862000L300.949000,315.862000ZM302.531000,315.301000C301.148000,315.582000,300.091000,315.527000,299.666000,315.157000C299.569000,315.071000,299.497000,314.962000,299.456000,314.840000C299.415000,314.718000,299.406000,314.587000,299.431000,314.461000C299.431000,314.316000,299.503000,314.262000,299.557000,314.235000C300.036000,314,301.501000,314.687000,302.531000,315.301000Z" fill="rgb(73,154,250)" stroke="none" stroke-width="1" stroke-miterlimit="1"></path><path id="eEol3nXSYRe89" d="M303.038000,315.582000C303.070000,315.594000,303.105000,315.594000,303.137000,315.582000C303.168000,315.565000,303.193000,315.540000,303.211000,315.510000C303.229000,315.480000,303.237000,315.445000,303.236000,315.410000C303.236000,315.310000,303.137000,312.969000,302.224000,312.201000C302.114000,312.104000,301.984000,312.032000,301.844000,311.990000C301.703000,311.948000,301.556000,311.937000,301.410000,311.957000L301.410000,311.957000C301.266000,311.957000,301.125000,312.006000,301.012000,312.097000C300.899000,312.187000,300.819000,312.313000,300.787000,312.454000C300.579000,313.358000,302.125000,315.166000,302.947000,315.591000C302.978000,315.597000,303.009000,315.594000,303.038000,315.582000L303.038000,315.582000ZM301.537000,312.291000C301.698000,312.293000,301.852000,312.354000,301.971000,312.463000C302.549000,312.951000,302.757000,314.316000,302.821000,315.003000C302.016000,314.370000,301.013000,313.023000,301.157000,312.490000C301.157000,312.445000,301.157000,312.327000,301.447000,312.300000L301.537000,312.300000L301.537000,312.291000Z" fill="rgb(73,154,250)" stroke="none" stroke-width="1" stroke-miterlimit="1"></path><path id="eEol3nXSYRe90" d="M245.073000,311.911000L254.583000,314.623000C254.735000,314.667000,254.867000,314.762000,254.956000,314.892000C255.045000,315.023000,255.086000,315.180000,255.072000,315.338000L254.367000,322.633000C254.344000,322.812000,254.282000,322.985000,254.186000,323.138000C254.091000,323.292000,253.963000,323.423000,253.812000,323.522000C253.661000,323.622000,253.490000,323.688000,253.311000,323.715000C253.132000,323.743000,252.949000,323.731000,252.775000,323.681000C249.729000,322.777000,247.559000,321.955000,243.735000,320.861000C241.367000,320.192000,233.656000,317.426000,230.844000,315.509000C228.033000,313.593000,229.687000,310.637000,231.016000,311.179000C236.992000,313.602000,241.195000,313.213000,243.672000,312.083000C244.104000,311.862000,244.601000,311.801000,245.073000,311.911000L245.073000,311.911000Z" fill="rgb(38,50,56)" stroke="none" stroke-width="1" stroke-miterlimit="1"></path><path id="eEol3nXSYRe91" d="M242.044000,312.526000C242.743000,312.700000,243.458000,312.800000,244.178000,312.824000C244.217000,312.827000,244.255000,312.818000,244.289000,312.799000C244.323000,312.779000,244.350000,312.751000,244.368000,312.716000C244.389000,312.686000,244.401000,312.649000,244.401000,312.612000C244.401000,312.575000,244.389000,312.538000,244.368000,312.508000C244.142000,312.255000,242.126000,310.013000,241.122000,310.203000C241.011000,310.227000,240.907000,310.280000,240.822000,310.356000C240.736000,310.432000,240.672000,310.529000,240.634000,310.637000C240.556000,310.806000,240.521000,310.992000,240.532000,311.178000C240.543000,311.364000,240.600000,311.545000,240.697000,311.704000C241.042000,312.120000,241.516000,312.410000,242.044000,312.526000L242.044000,312.526000ZM243.726000,312.418000C242.316000,312.309000,241.312000,311.966000,241.014000,311.514000C240.953000,311.401000,240.921000,311.275000,240.921000,311.148000C240.921000,311.020000,240.953000,310.894000,241.014000,310.781000C241.068000,310.637000,241.140000,310.610000,241.204000,310.601000C241.719000,310.483000,242.894000,311.550000,243.726000,312.454000L243.726000,312.418000Z" fill="rgb(73,154,250)" stroke="none" stroke-width="1" stroke-miterlimit="1"></path><path id="eEol3nXSYRe92" d="M244.133000,312.815000C244.169000,312.825000,244.206000,312.825000,244.241000,312.815000C244.276000,312.807000,244.308000,312.789000,244.334000,312.763000C244.359000,312.738000,244.377000,312.706000,244.386000,312.671000C244.386000,312.580000,244.947000,310.302000,244.287000,309.308000C244.206000,309.187000,244.101000,309.084000,243.978000,309.006000C243.855000,308.928000,243.717000,308.877000,243.573000,308.856000L243.573000,308.856000C243.432000,308.817000,243.283000,308.826000,243.149000,308.882000C243.015000,308.937000,242.903000,309.037000,242.831000,309.163000C242.379000,309.977000,243.392000,312.110000,244.052000,312.779000C244.075000,312.798000,244.103000,312.810000,244.133000,312.815000L244.133000,312.815000ZM243.582000,309.245000C243.736000,309.288000,243.869000,309.388000,243.952000,309.525000C244.386000,310.158000,244.205000,311.532000,244.088000,312.237000C243.482000,311.414000,242.904000,309.850000,243.184000,309.371000C243.184000,309.326000,243.265000,309.227000,243.518000,309.263000L243.582000,309.245000Z" fill="rgb(73,154,250)" stroke="none" stroke-width="1" stroke-miterlimit="1"></path><path id="eEol3nXSYRe93" d="M306.202000,60.852500C306.106000,60.837000,306.007000,60.843700,305.914000,60.871900C305.821000,60.900200,305.735000,60.949300,305.664000,61.015500C305.593000,61.081700,305.537000,61.163200,305.502000,61.254000C305.467000,61.344800,305.453000,61.442500,305.461000,61.539500C305.777000,66.384900,298.229000,75.099500,296.421000,101.198000C295.345000,117.072000,294.360000,166.566000,295.083000,192.312000C295.093000,192.650000,295.181000,192.981000,295.338000,193.280000C295.496000,193.579000,295.720000,193.838000,295.992000,194.038000C296.265000,194.237000,296.580000,194.372000,296.913000,194.432000C297.245000,194.491000,297.587000,194.475000,297.912000,194.382000C311.255000,190.658000,317.556000,199.689000,320.124000,189.040000C319.988000,176.284000,316.128000,130.488000,317.122000,119.631000C318.117000,108.774000,322.248000,79.276000,323.279000,71.411200C324.192000,64.576900,309.936000,61.530500,306.202000,60.852500Z" fill="rgb(73,154,250)" stroke="none" stroke-width="1" stroke-miterlimit="1"></path><path id="eEol3nXSYRe94" d="M306.202000,60.852500C306.106000,60.837000,306.007000,60.843700,305.914000,60.871900C305.821000,60.900200,305.735000,60.949300,305.664000,61.015500C305.593000,61.081700,305.537000,61.163200,305.502000,61.254000C305.467000,61.344800,305.453000,61.442500,305.461000,61.539500C305.777000,66.384900,298.229000,75.099500,296.421000,101.198000C295.345000,117.072000,294.360000,166.566000,295.083000,192.312000C295.093000,192.650000,295.181000,192.981000,295.338000,193.280000C295.496000,193.579000,295.720000,193.838000,295.992000,194.038000C296.265000,194.237000,296.580000,194.372000,296.913000,194.432000C297.245000,194.491000,297.587000,194.475000,297.912000,194.382000C311.255000,190.658000,317.556000,199.689000,320.124000,189.040000C319.988000,176.284000,316.128000,130.488000,317.122000,119.631000C318.117000,108.774000,322.248000,79.276000,323.279000,71.411200C324.192000,64.576900,309.936000,61.530500,306.202000,60.852500Z" opacity="0.7" fill="rgb(255,255,255)" stroke="none" stroke-width="1" stroke-miterlimit="1"></path><path id="eEol3nXSYRe95" d="M314.997000,82.973400C314.410000,87.005200,314.184000,103.295000,318.062000,111.133000C318.713000,105.709000,319.562000,99.263500,320.385000,93.053000L314.997000,82.973400Z" opacity="0.2" fill="rgb(73,154,250)" stroke="none" stroke-width="1" stroke-miterlimit="1"></path><path id="eEol3nXSYRe96" d="M320.539000,153.422000L316.688000,153.874000L313.280000,159.958000C313.093000,160.287000,312.977000,160.652000,312.940000,161.029000C312.903000,161.406000,312.945000,161.786000,313.063000,162.146000L314.293000,165.888000C314.501000,166.529000,314.941000,167.069000,315.526000,167.403000C316.111000,167.737000,316.799000,167.842000,317.457000,167.696000L319.174000,167.335000C319.805000,167.206000,320.370000,166.858000,320.768000,166.351000C321.165000,165.844000,321.370000,165.212000,321.344000,164.568000L321.235000,161.242000C321.235000,161.242000,324.291000,154.181000,320.539000,153.422000Z" fill="rgb(255,181,115)" stroke="none" stroke-width="1" stroke-miterlimit="1"></path><path id="eEol3nXSYRe97" d="M322.655000,68.373800C323.884000,71.989800,325.023000,75.560600,326.153000,79.176600C327.283000,82.792600,328.413000,86.408600,329.480000,90.024600C330.547000,93.640600,331.577000,97.337900,332.526000,101.108000C332.996000,102.997000,333.430000,104.904000,333.846000,106.902000C334.036000,107.906000,334.226000,108.927000,334.379000,110.012000C334.452000,110.573000,334.533000,111.088000,334.578000,111.712000L334.660000,112.616000L334.705000,113.637000C334.723000,113.980000,334.723000,114.324000,334.705000,114.668000C334.705000,115.029000,334.705000,115.373000,334.660000,115.653000L334.578000,116.557000L334.479000,117.371000C334.352000,118.464000,334.190000,119.459000,334.027000,120.453000C333.701000,122.424000,333.322000,124.322000,332.933000,126.203000C332.156000,129.963000,331.288000,133.643000,330.411000,137.304000C329.534000,140.965000,328.603000,144.617000,327.699000,148.260000L324.987000,159.190000L311.897000,155.637000C313.922000,148.577000,315.766000,141.390000,317.475000,134.248000C318.306000,130.632000,319.084000,127.089000,319.780000,123.554000C320.123000,121.746000,320.449000,120.028000,320.684000,118.329000C320.819000,117.479000,320.928000,116.638000,321,115.879000C321.071000,115.279000,321.095000,114.675000,321.073000,114.071000L321.073000,113.691000L321.009000,113.203000C321.009000,112.896000,320.901000,112.489000,320.847000,112.136000C320.720000,111.377000,320.557000,110.573000,320.377000,109.750000C320.006000,108.105000,319.563000,106.405000,319.084000,104.696000C318.180000,101.270000,317.032000,97.799000,315.866000,94.345700C313.560000,87.439100,310.966000,80.487400,308.290000,73.725500L322.655000,68.373800Z" fill="rgb(73,154,250)" stroke="none" stroke-width="1" stroke-miterlimit="1"></path><path id="eEol3nXSYRe98" d="M322.655000,68.373800C323.884000,71.989800,325.023000,75.560600,326.153000,79.176600C327.283000,82.792600,328.413000,86.408600,329.480000,90.024600C330.547000,93.640600,331.577000,97.337900,332.526000,101.108000C332.996000,102.997000,333.430000,104.904000,333.846000,106.902000C334.036000,107.906000,334.226000,108.927000,334.379000,110.012000C334.452000,110.573000,334.533000,111.088000,334.578000,111.712000L334.660000,112.616000L334.705000,113.637000C334.723000,113.980000,334.723000,114.324000,334.705000,114.668000C334.705000,115.029000,334.705000,115.373000,334.660000,115.653000L334.578000,116.557000L334.479000,117.371000C334.352000,118.464000,334.190000,119.459000,334.027000,120.453000C333.701000,122.424000,333.322000,124.322000,332.933000,126.203000C332.156000,129.963000,331.288000,133.643000,330.411000,137.304000C329.534000,140.965000,328.603000,144.617000,327.699000,148.260000L324.987000,159.190000L311.897000,155.637000C313.922000,148.577000,315.766000,141.390000,317.475000,134.248000C318.306000,130.632000,319.084000,127.089000,319.780000,123.554000C320.123000,121.746000,320.449000,120.028000,320.684000,118.329000C320.819000,117.479000,320.928000,116.638000,321,115.879000C321.071000,115.279000,321.095000,114.675000,321.073000,114.071000L321.073000,113.691000L321.009000,113.203000C321.009000,112.896000,320.901000,112.489000,320.847000,112.136000C320.720000,111.377000,320.557000,110.573000,320.377000,109.750000C320.006000,108.105000,319.563000,106.405000,319.084000,104.696000C318.180000,101.270000,317.032000,97.799000,315.866000,94.345700C313.560000,87.439100,310.966000,80.487400,308.290000,73.725500L322.655000,68.373800Z" opacity="0.7" fill="rgb(255,255,255)" stroke="none" stroke-width="1" stroke-miterlimit="1"></path><path id="eEol3nXSYRe99" d="M288.619000,60.174500C288.817000,60.173000,289.012000,60.228000,289.181000,60.333100C289.350000,60.438300,289.485000,60.589100,289.571000,60.768200C289.657000,60.947200,289.691000,61.147100,289.668000,61.344400C289.645000,61.541800,289.566000,61.728600,289.441000,61.883000C287.290000,64.378100,285.934000,67.804200,283.384000,78.796900C280.311000,92.058600,273.766000,158.783000,272.536000,191.480000C272.530000,191.752000,272.465000,192.019000,272.346000,192.263000C272.227000,192.508000,272.056000,192.723000,271.846000,192.895000C271.635000,193.067000,271.390000,193.191000,271.127000,193.259000C270.864000,193.327000,270.589000,193.337000,270.322000,193.288000C263.939000,192.113000,259.564000,195.205000,258.868000,191.110000C258.099000,186.590000,260.965000,143.415000,266.326000,123.111000C265.485000,105.103000,268.523000,68.979400,274.588000,64.179200C277.879000,61.512400,284.876000,60.237700,288.619000,60.174500Z" fill="rgb(73,154,250)" stroke="none" stroke-width="1" stroke-miterlimit="1"></path><path id="eEol3nXSYRe100" d="M288.619000,60.174500C288.817000,60.173000,289.012000,60.228000,289.181000,60.333100C289.350000,60.438300,289.485000,60.589100,289.571000,60.768200C289.657000,60.947200,289.691000,61.147100,289.668000,61.344400C289.645000,61.541800,289.566000,61.728600,289.441000,61.883000C287.290000,64.378100,285.934000,67.804200,283.384000,78.796900C280.311000,92.058600,273.766000,158.783000,272.536000,191.480000C272.530000,191.752000,272.465000,192.019000,272.346000,192.263000C272.227000,192.508000,272.056000,192.723000,271.846000,192.895000C271.635000,193.067000,271.390000,193.191000,271.127000,193.259000C270.864000,193.327000,270.589000,193.337000,270.322000,193.288000C263.939000,192.113000,259.564000,195.205000,258.868000,191.110000C258.099000,186.590000,260.965000,143.415000,266.326000,123.111000C265.485000,105.103000,268.523000,68.979400,274.588000,64.179200C277.879000,61.512400,284.876000,60.237700,288.619000,60.174500Z" opacity="0.7" fill="rgb(255,255,255)" stroke="none" stroke-width="1" stroke-miterlimit="1"></path><path id="eEol3nXSYRe101" d="M292.136000,69.133100C292.136000,69.133100,284.325000,91.073200,281.577000,109.461000C281.360000,114.460000,283.738000,124.142000,285.663000,128.363000C289.686000,119.603000,292.199000,114.442000,292.597000,109.461000C293.239000,101.966000,294.297000,69.277800,294.297000,69.277800L292.136000,69.133100Z" fill="rgb(38,50,56)" stroke="none" stroke-width="1" stroke-miterlimit="1"></path><path id="eEol3nXSYRe102" d="M308.480000,95.231600C308.401000,95.229000,308.325000,95.200500,308.263000,95.150400C308.202000,95.100400,308.159000,95.031600,308.140000,94.954600C308.122000,94.877600,308.129000,94.796700,308.161000,94.724300C308.193000,94.651800,308.248000,94.591900,308.317000,94.553600L309.800000,93.776200C311.184000,93.064300,312.318000,91.947500,313.051000,90.574700C313.784000,89.201900,314.082000,87.638300,313.904000,86.092200L312.295000,71.519700C312.176000,70.433400,311.695000,69.418700,310.929000,68.639200C310.164000,67.859800,309.158000,67.360900,308.074000,67.223000C306.990000,67.085200,305.891000,67.316400,304.954000,67.879400C304.018000,68.442400,303.298000,69.304400,302.911000,70.326400L297.704000,84.022000C297.144000,85.473500,297.038000,87.061300,297.401000,88.574300C297.765000,90.087300,298.580000,91.453900,299.738000,92.492500L300.986000,93.622500C301.052000,93.690100,301.089000,93.781000,301.089000,93.875600C301.089000,93.970300,301.052000,94.061200,300.986000,94.128800C300.918000,94.195000,300.827000,94.232100,300.733000,94.232100C300.638000,94.232100,300.547000,94.195000,300.480000,94.128800L299.232000,93.007800C297.970000,91.868000,297.084000,90.371500,296.692000,88.716700C296.299000,87.061900,296.419000,85.326900,297.035000,83.741800L302.288000,70.073300C302.736000,68.905500,303.564000,67.922000,304.637000,67.280300C305.711000,66.638600,306.969000,66.375900,308.210000,66.534300C309.451000,66.692600,310.603000,67.262900,311.481000,68.153700C312.360000,69.044500,312.914000,70.204400,313.054000,71.447400L314.663000,86.010800C314.854000,87.705500,314.523000,89.417900,313.716000,90.919900C312.908000,92.421900,311.662000,93.642200,310.143000,94.418000L308.661000,95.186400C308.607000,95.221000,308.544000,95.236900,308.480000,95.231600L308.480000,95.231600Z" fill="rgb(38,50,56)" stroke="none" stroke-width="1" stroke-miterlimit="1"></path><path id="eEol3nXSYRe103" d="M312.963000,74.701800C312.877000,74.702500,312.794000,74.671600,312.729000,74.615000C312.664000,74.558400,312.622000,74.479900,312.611000,74.394400C312.401000,73.222400,311.806000,72.154000,310.920000,71.358200C310.034000,70.562500,308.908000,70.084900,307.720000,70.001000C305.713000,69.747900,302.983000,70.380700,301.889000,73.020400C301.874000,73.067100,301.849000,73.110200,301.816000,73.146900C301.783000,73.183600,301.743000,73.213200,301.698000,73.233800C301.653000,73.254400,301.604000,73.265700,301.555000,73.266800C301.506000,73.267900,301.457000,73.258900,301.411000,73.240400C301.365000,73.221800,301.324000,73.194100,301.289000,73.159000C301.254000,73.123800,301.227000,73.081900,301.209000,73.035900C301.192000,72.989900,301.183000,72.940700,301.185000,72.891400C301.187000,72.842100,301.199000,72.793700,301.220000,72.749200C301.832000,71.567000,302.792000,70.601300,303.970000,69.982900C305.149000,69.364600,306.489000,69.123400,307.809000,69.292100C309.129000,69.460800,310.365000,70.031300,311.350000,70.926200C312.335000,71.821000,313.022000,72.997100,313.316000,74.295000C313.329000,74.387300,313.305000,74.480900,313.249000,74.555400C313.193000,74.630000,313.110000,74.679300,313.018000,74.692800L312.963000,74.701800Z" fill="rgb(38,50,56)" stroke="none" stroke-width="1" stroke-miterlimit="1"></path><path id="eEol3nXSYRe104" d="M308.100000,67.225700C308.053000,67.223400,308.007000,67.211700,307.964000,67.191200C307.922000,67.170800,307.884000,67.142000,307.853000,67.106600C307.822000,67.071200,307.798000,67.029900,307.783000,66.985100C307.768000,66.940300,307.762000,66.893000,307.766000,66.846000C307.874000,65.083200,307.621000,61.874000,305.958000,61.042300C305.873000,60.997900,305.809000,60.921600,305.780000,60.830000C305.751000,60.738500,305.760000,60.639300,305.804000,60.554100C305.849000,60.469000,305.925000,60.405000,306.016000,60.376200C306.108000,60.347400,306.207000,60.356100,306.292000,60.400500C308.697000,61.638900,308.480000,66.357800,308.444000,66.891200C308.439000,66.980000,308.401000,67.063800,308.338000,67.125800C308.274000,67.187800,308.189000,67.223500,308.100000,67.225700L308.100000,67.225700Z" fill="rgb(38,50,56)" stroke="none" stroke-width="1" stroke-miterlimit="1"></path><path id="eEol3nXSYRe105" d="M301.547000,93.984100C301.456000,94.662100,301.032000,95.159300,300.589000,95.096000C300.146000,95.032700,299.856000,94.454200,299.947000,93.785200C300.037000,93.116300,300.453000,92.610000,300.896000,92.673300C301.339000,92.736600,301.628000,93.315200,301.547000,93.984100Z" fill="rgb(38,50,56)" stroke="none" stroke-width="1" stroke-miterlimit="1"></path><path id="eEol3nXSYRe106" d="M280.528000,79.330200C279.958000,80.767600,278.720000,81.635400,277.816000,81.264800C276.912000,80.894100,276.559000,79.456800,277.129000,77.983200C277.698000,76.509700,278.937000,75.678000,279.841000,76.048700C280.745000,76.419300,281.088000,77.892800,280.528000,79.330200Z" fill="rgb(38,50,56)" stroke="none" stroke-width="1" stroke-miterlimit="1"></path><path id="eEol3nXSYRe107" d="M277.555000,78.399100L277.483000,78.399100C277.389000,78.379500,277.308000,78.323900,277.255000,78.244300C277.203000,78.164700,277.184000,78.067700,277.202000,77.974200C278.396000,72.034900,283.331000,62.606200,287.680000,59.894200C287.719000,59.860100,287.766000,59.835000,287.816000,59.820600C287.866000,59.806100,287.918000,59.802600,287.970000,59.810400C288.021000,59.818100,288.071000,59.836900,288.114000,59.865500C288.158000,59.894100,288.195000,59.931700,288.222000,59.975900C288.250000,60.020000,288.268000,60.069700,288.275000,60.121300C288.281000,60.173000,288.277000,60.225600,288.261000,60.275300C288.246000,60.325100,288.220000,60.370900,288.185000,60.409700C288.150000,60.448400,288.107000,60.479200,288.059000,60.499900C283.856000,63.148600,279.074000,72.251900,277.907000,78.100800C277.893000,78.183800,277.849000,78.259100,277.785000,78.313500C277.721000,78.368000,277.639000,78.398300,277.555000,78.399100L277.555000,78.399100Z" fill="rgb(38,50,56)" stroke="none" stroke-width="1" stroke-miterlimit="1"></path><path id="eEol3nXSYRe108" d="M281.559000,79.628500C281.143000,80.867000,280.076000,81.635400,279.172000,81.337100C278.268000,81.038800,277.861000,79.782200,278.268000,78.534700C278.675000,77.287200,279.751000,76.527800,280.655000,76.826200C281.559000,77.124500,281.975000,78.381000,281.559000,79.628500Z" fill="rgb(255,255,255)" stroke="none" stroke-width="1" stroke-miterlimit="1"></path><path id="eEol3nXSYRe109" d="M281.622000,79.755100C281.071000,81.282900,280.049000,82.322500,279.353000,82.069400C278.657000,81.816200,278.539000,80.369900,279.100000,78.833100C279.660000,77.296300,280.673000,76.265700,281.369000,76.518800C282.065000,76.771900,282.183000,78.218300,281.622000,79.755100Z" fill="rgb(38,50,56)" stroke="none" stroke-width="1" stroke-miterlimit="1"></path><path id="eEol3nXSYRe110" d="M309.284000,94.978500C309.203000,95.647500,308.769000,96.144700,308.326000,96.090500C307.883000,96.036200,307.594000,95.439600,307.684000,94.770600C307.774000,94.101700,308.199000,93.604500,308.642000,93.658700C309.085000,93.713000,309.375000,94.300500,309.284000,94.978500Z" fill="rgb(38,50,56)" stroke="none" stroke-width="1" stroke-miterlimit="1"></path><path id="eEol3nXSYRe111" d="M401.999000,83.877400L403.410000,93.767100L404.892000,103.630000C405.380000,106.929000,405.896000,110.211000,406.420000,113.501000L407.984000,123.301000L408.174000,124.268000C408.237000,124.585000,408.345000,124.991000,408.427000,125.344000L408.698000,126.456000L409.014000,127.604000C409.421000,129.123000,409.918000,130.696000,410.352000,132.250000C411.256000,135.369000,412.296000,138.524000,413.317000,141.661000C415.397000,147.926000,417.566000,154.218000,419.881000,160.401000L407.098000,164.921000L400.698000,145.810000C399.640000,142.619000,398.564000,139.428000,397.543000,136.174000C397.036000,134.538000,396.530000,132.919000,396.051000,131.229000L395.680000,129.972000L395.328000,128.662000C395.210000,128.210000,395.084000,127.812000,394.975000,127.315000L394.641000,125.832000L392.751000,115.888000C392.149000,112.610000,391.519000,109.331000,390.862000,106.053000L388.928000,96.217000L386.912000,86.453800L401.999000,83.877400Z" fill="rgb(73,154,250)" stroke="none" stroke-width="1" stroke-miterlimit="1"></path><path id="eEol3nXSYRe112" d="M401.999000,83.877400L403.410000,93.767100L404.892000,103.630000C405.380000,106.929000,405.896000,110.211000,406.420000,113.501000L407.984000,123.301000L408.174000,124.268000C408.237000,124.585000,408.345000,124.991000,408.427000,125.344000L408.698000,126.456000L409.014000,127.604000C409.421000,129.123000,409.918000,130.696000,410.352000,132.250000C411.256000,135.369000,412.296000,138.524000,413.317000,141.661000C415.397000,147.926000,417.566000,154.218000,419.881000,160.401000L407.098000,164.921000L400.698000,145.810000C399.640000,142.619000,398.564000,139.428000,397.543000,136.174000C397.036000,134.538000,396.530000,132.919000,396.051000,131.229000L395.680000,129.972000L395.328000,128.662000C395.210000,128.210000,395.084000,127.812000,394.975000,127.315000L394.641000,125.832000L392.751000,115.888000C392.149000,112.610000,391.519000,109.331000,390.862000,106.053000L388.928000,96.217000L386.912000,86.453800L401.999000,83.877400Z" opacity="0.6" fill="rgb(255,255,255)" stroke="none" stroke-width="1" stroke-miterlimit="1"></path><path id="eEol3nXSYRe113" d="M399.965000,83.118000C400.390000,87.936300,400.010000,99.923400,395.174000,129.638000L361.726000,129.638000C362.259000,116.729000,362.295000,108.502000,356.754000,83.868300C356.628000,83.314400,356.617000,82.740500,356.721000,82.182100C356.826000,81.623700,357.044000,81.092700,357.361000,80.621700C357.679000,80.150800,358.090000,79.749900,358.568000,79.443800C359.047000,79.137700,359.583000,78.932900,360.144000,78.842100C363.409000,78.305700,366.702000,77.946500,370.006000,77.766300C375.068000,77.404300,380.150000,77.404300,385.212000,77.766300C389.370000,78.146000,393.881000,78.896300,396.611000,79.393500C397.500000,79.562300,398.310000,80.018000,398.916000,80.690600C399.521000,81.363300,399.890000,82.215900,399.965000,83.118000L399.965000,83.118000Z" fill="rgb(38,50,56)" stroke="none" stroke-width="1" stroke-miterlimit="1"></path><path id="eEol3nXSYRe114" d="M395.174000,129.638000C395.174000,129.638000,405.652000,193.144000,409.918000,217.904000C414.366000,243.650000,424.382000,304.246000,424.382000,304.246000L413.372000,306.054000C413.372000,306.054000,398.528000,245.395000,392.580000,220.173000C386.125000,192.647000,370.486000,155.736000,370.649000,129.710000L395.174000,129.638000Z" fill="rgb(73,154,250)" stroke="none" stroke-width="1" stroke-miterlimit="1"></path><path id="eEol3nXSYRe115" d="M378.350000,149.128000C376.777000,146.841000,373.749000,143.632000,371.426000,140.992000C373.532000,157.174000,379.562000,175.950000,385.067000,193.632000C386.532000,180.162000,385.700000,159.732000,378.350000,149.128000Z" opacity="0.2" fill="rgb(0,0,0)" stroke="none" stroke-width="1" stroke-miterlimit="1"></path><path id="eEol3nXSYRe116" d="M364.591000,315.509000L372.836000,315.509000L373.387000,296.417000L365.134000,296.417000L364.591000,315.509000Z" fill="rgb(255,195,189)" stroke="none" stroke-width="1" stroke-miterlimit="1"></path><path id="eEol3nXSYRe117" d="M373.225000,314.262000L363.959000,314.262000C363.799000,314.260000,363.643000,314.317000,363.522000,314.422000C363.401000,314.527000,363.321000,314.672000,363.299000,314.831000L362.242000,322.154000C362.223000,322.340000,362.243000,322.528000,362.301000,322.705000C362.359000,322.883000,362.454000,323.047000,362.579000,323.185000C362.704000,323.324000,362.857000,323.435000,363.028000,323.511000C363.199000,323.587000,363.384000,323.627000,363.571000,323.627000C366.798000,323.564000,368.353000,323.374000,372.430000,323.374000C374.934000,323.374000,380.114000,323.636000,383.576000,323.636000C387.038000,323.636000,387.192000,320.219000,385.782000,319.903000C379.318000,318.520000,376.742000,316.603000,374.599000,314.768000C374.214000,314.445000,373.728000,314.266000,373.225000,314.262000L373.225000,314.262000Z" fill="rgb(38,50,56)" stroke="none" stroke-width="1" stroke-miterlimit="1"></path><g id="eEol3nXSYRe118" opacity="0.2"><path id="eEol3nXSYRe119" d="M373.379000,296.426000L373.098000,306.270000L364.854000,306.270000L365.134000,296.426000L373.379000,296.426000Z" opacity="0.2" fill="rgb(0,0,0)" stroke="none" stroke-width="1" stroke-miterlimit="1"></path></g><path id="eEol3nXSYRe120" d="M385.763000,129.638000C385.763000,129.638000,382.418000,193.957000,380.158000,218.998000C377.799000,245.052000,374.960000,304.092000,374.960000,304.092000L363.805000,304.092000C363.805000,304.092000,361.816000,245.278000,362.594000,219.586000C363.434000,191.562000,356.700000,155.664000,361.247000,129.638000L385.763000,129.638000Z" fill="rgb(73,154,250)" stroke="none" stroke-width="1" stroke-miterlimit="1"></path><path id="eEol3nXSYRe121" d="M362.838000,304.490000L375.919000,304.734000L376.118000,296.760000L362.784000,297.592000L362.838000,304.490000Z" fill="rgb(38,50,56)" stroke="none" stroke-width="1" stroke-miterlimit="1"></path><g id="eEol3nXSYRe122_tr" transform="translate(378.901459,79.985546) rotate(0)"><g id="eEol3nXSYRe122" transform="translate(-378.901459,-79.985546)"><path id="eEol3nXSYRe123" d="M360.542000,55.808200C363.562000,64.061700,355.534000,68.211000,350.273000,80.369800C345.011000,92.528600,357.704000,107.029000,377.185000,107.345000C396.666000,107.662000,397.281000,89.003000,394.261000,75.614800C391.242000,62.226500,397.552000,60.047900,396.214000,49.823700C394.496000,36.390200,375.142000,26.211200,367.458000,38.541800C360.624000,37.899900,357.903000,48.594200,360.542000,55.808200Z" fill="rgb(38,50,56)" stroke="none" stroke-width="1" stroke-miterlimit="1"></path><path id="eEol3nXSYRe124" d="M371.480000,60.644500C372.439000,65.535200,373.397000,74.502900,369.971000,77.766300C369.971000,77.766300,374.256000,82.973300,380.819000,82.973300C387.382000,82.973300,385.185000,77.766300,385.185000,77.766300C379.761000,76.464500,379.870000,72.414600,380.819000,68.617800L371.480000,60.644500Z" fill="rgb(255,195,189)" stroke="none" stroke-width="1" stroke-miterlimit="1"></path><path id="eEol3nXSYRe125" d="M375.286000,63.898900L380.809000,68.608800C380.575000,69.497600,380.418000,70.404900,380.339000,71.320800C378.251000,71.022400,374.978000,69.241600,374.526000,66.972500C374.318000,65.896800,375.105000,64.405200,375.286000,63.898900Z" opacity="0.2" fill="rgb(0,0,0)" stroke="none" stroke-width="1" stroke-miterlimit="1"></path><path id="eEol3nXSYRe126" d="M365.722000,51.044100C366.997000,59.125900,367.367000,62.570100,371.869000,66.348800C378.649000,72.035000,388.295000,68.699200,389.461000,60.400500C390.510000,52.933400,388.241000,40.964500,379.978000,38.496600C378.158000,37.942900,376.226000,37.863600,374.367000,38.266300C372.507000,38.668900,370.781000,39.540100,369.353000,40.797200C367.925000,42.054300,366.842000,43.655500,366.206000,45.448800C365.571000,47.242200,365.404000,49.168200,365.722000,51.044100L365.722000,51.044100Z" fill="rgb(255,195,189)" stroke="none" stroke-width="1" stroke-miterlimit="1"></path><path id="eEol3nXSYRe127" d="M367.068000,56.865800C371.697000,52.282600,373.288000,45.909400,372.854000,43.305800C377.310000,44.544300,380.583000,42.790600,380.384000,42.031200C383.530000,45.104800,389.234000,47.536600,388.592000,44.227900C387.951000,40.919300,383.729000,34.817300,374.924000,36.995900C366.119000,39.174600,362.729000,48.214600,362.855000,51.884800C362.982000,55.555000,367.068000,56.865800,367.068000,56.865800Z" fill="rgb(38,50,56)" stroke="none" stroke-width="1" stroke-miterlimit="1"></path><g id="eEol3nXSYRe128"><path id="eEol3nXSYRe129" d="M377.320000,51.957100C377.384000,52.626000,377.781000,53.123200,378.224000,53.087100C378.667000,53.050900,378.957000,52.472300,378.893000,51.812400C378.830000,51.152500,378.423000,50.646300,377.989000,50.682400C377.555000,50.718600,377.320000,51.297100,377.320000,51.957100Z" fill="rgb(38,50,56)" stroke="none" stroke-width="1" stroke-miterlimit="1"></path><path id="eEol3nXSYRe130" d="M384.833000,51.243000C384.896000,51.902900,385.303000,52.409100,385.737000,52.363900C386.171000,52.318700,386.469000,51.758200,386.406000,51.098300C386.342000,50.438400,385.936000,49.932200,385.502000,49.968300C385.068000,50.004500,384.769000,50.583000,384.833000,51.243000Z" fill="rgb(38,50,56)" stroke="none" stroke-width="1" stroke-miterlimit="1"></path><path id="eEol3nXSYRe131" d="M385.320000,50.022500L386.866000,49.416900C386.866000,49.416900,386.161000,50.736700,385.320000,50.022500Z" fill="rgb(38,50,56)" stroke="none" stroke-width="1" stroke-miterlimit="1"></path><path id="eEol3nXSYRe132" d="M377.836000,50.736700L379.382000,50.131000C379.382000,50.131000,378.686000,51.450900,377.836000,50.736700Z" fill="rgb(38,50,56)" stroke="none" stroke-width="1" stroke-miterlimit="1"></path></g><path id="eEol3nXSYRe133" d="M382.644000,52.653100C383.375000,54.108300,384.303000,55.455800,385.401000,56.657900C385.087000,56.930100,384.717000,57.130900,384.318000,57.246400C383.918000,57.361900,383.498000,57.389400,383.087000,57.326800L382.644000,52.653100Z" fill="rgb(237,132,126)" stroke="none" stroke-width="1" stroke-miterlimit="1"></path><path id="eEol3nXSYRe134" d="M379.725000,60.237800C380.053000,60.260200,380.382000,60.260200,380.710000,60.237800C380.761000,60.231000,380.808000,60.204600,380.840000,60.164100C380.872000,60.123600,380.887000,60.072200,380.882000,60.020800C380.881000,59.995400,380.875000,59.970400,380.863000,59.947600C380.852000,59.924800,380.836000,59.904600,380.816000,59.888400C380.797000,59.872200,380.774000,59.860300,380.749000,59.853500C380.725000,59.846700,380.699000,59.845200,380.674000,59.849100C379.851000,59.944300,379.018000,59.845100,378.241000,59.559300C377.463000,59.273500,376.764000,58.809200,376.199000,58.203800C376.164000,58.172100,376.119000,58.153900,376.072000,58.152300C376.025000,58.150800,375.979000,58.166000,375.942000,58.195400C375.905000,58.224700,375.880000,58.266200,375.870000,58.312400C375.861000,58.358700,375.869000,58.406700,375.892000,58.447900C376.381000,58.984600,376.971000,59.419100,377.629000,59.726400C378.287000,60.033600,378.999000,60.207400,379.725000,60.237800L379.725000,60.237800Z" fill="rgb(38,50,56)" stroke="none" stroke-width="1" stroke-miterlimit="1"></path><path id="eEol3nXSYRe135" d="M363.932000,57.616100C364.535000,59.079400,365.692000,60.245600,367.150000,60.861500C369.085000,61.657000,370.305000,59.957500,369.971000,58.032000C369.672000,56.224000,368.298000,53.719900,366.255000,53.756100C365.810000,53.777800,365.378000,53.908700,364.996000,54.137200C364.613000,54.365700,364.293000,54.684800,364.064000,55.066300C363.834000,55.447800,363.702000,55.880000,363.679000,56.324700C363.656000,56.769400,363.743000,57.213000,363.932000,57.616100L363.932000,57.616100Z" fill="rgb(255,195,189)" stroke="none" stroke-width="1" stroke-miterlimit="1"></path><path id="eEol3nXSYRe136" d="M374.744000,48.485800C374.822000,48.513300,374.906000,48.515900,374.986000,48.493200C375.065000,48.470500,375.135000,48.423700,375.187000,48.359200C376.326000,46.958000,378.649000,47.093600,378.667000,47.093600C378.770000,47.098700,378.871000,47.063900,378.948000,46.996500C379.026000,46.929100,379.074000,46.834300,379.083000,46.732000C379.088000,46.680700,379.083000,46.628900,379.067000,46.579800C379.051000,46.530700,379.026000,46.485300,378.992000,46.446400C378.958000,46.407500,378.917000,46.375900,378.870000,46.353500C378.824000,46.331100,378.773000,46.318400,378.722000,46.316200C378.613000,46.316200,375.964000,46.153500,374.581000,47.871100C374.517000,47.952000,374.486000,48.054900,374.497000,48.157800C374.507000,48.260800,374.556000,48.355700,374.635000,48.422500L374.744000,48.485800Z" fill="rgb(38,50,56)" stroke="none" stroke-width="1" stroke-miterlimit="1"></path><path id="eEol3nXSYRe137" d="M387.554000,47.663100C387.639000,47.668300,387.724000,47.645000,387.795000,47.596800C387.867000,47.548600,387.920000,47.478200,387.946000,47.396600C387.973000,47.315100,387.972000,47.226900,387.944000,47.145900C387.915000,47.064900,387.861000,46.995700,387.789000,46.949000C387.283000,46.591900,386.699000,46.360500,386.086000,46.274100C385.473000,46.187600,384.848000,46.248500,384.263000,46.451800C384.168000,46.493500,384.093000,46.570800,384.054000,46.667100C384.015000,46.763300,384.016000,46.871000,384.055000,46.967000C384.075000,47.014900,384.104000,47.058300,384.141000,47.094800C384.177000,47.131200,384.221000,47.160000,384.269000,47.179300C384.317000,47.198700,384.369000,47.208300,384.420000,47.207500C384.472000,47.206800,384.523000,47.195700,384.570000,47.175000C385.035000,47.020200,385.530000,46.978000,386.014000,47.051900C386.498000,47.125800,386.958000,47.313600,387.355000,47.599800C387.414000,47.638200,387.483000,47.660100,387.554000,47.663100Z" fill="rgb(38,50,56)" stroke="none" stroke-width="1" stroke-miterlimit="1"></path></g></g><path id="eEol3nXSYRe138" d="M376.316000,315.735000C377.020000,315.800000,377.725000,315.621000,378.314000,315.229000C378.446000,315.111000,378.548000,314.961000,378.610000,314.794000C378.671000,314.627000,378.691000,314.447000,378.666000,314.271000C378.660000,314.164000,378.626000,314.061000,378.570000,313.971000C378.513000,313.881000,378.434000,313.807000,378.341000,313.756000C377.328000,313.195000,374.038000,314.876000,373.667000,315.075000C373.633000,315.095000,373.605000,315.124000,373.587000,315.160000C373.569000,315.195000,373.562000,315.235000,373.568000,315.274000C373.573000,315.314000,373.590000,315.351000,373.618000,315.381000C373.646000,315.410000,373.682000,315.430000,373.721000,315.437000C374.575000,315.619000,375.443000,315.719000,376.316000,315.735000ZM377.789000,314.027000C377.914000,314.023000,378.037000,314.048000,378.151000,314.099000C378.189000,314.119000,378.221000,314.149000,378.243000,314.185000C378.265000,314.222000,378.277000,314.264000,378.277000,314.307000C378.297000,314.422000,378.287000,314.539000,378.247000,314.649000C378.208000,314.758000,378.140000,314.855000,378.051000,314.931000C377.554000,315.383000,376.198000,315.464000,374.372000,315.157000C375.438000,314.587000,376.594000,314.205000,377.789000,314.027000L377.789000,314.027000Z" fill="rgb(73,154,250)" stroke="none" stroke-width="1" stroke-miterlimit="1"></path><path id="eEol3nXSYRe139" d="M373.758000,315.446000L373.839000,315.446000C374.824000,315.003000,376.768000,313.222000,376.614000,312.291000C376.614000,312.065000,376.425000,311.794000,375.882000,311.740000C375.688000,311.717000,375.491000,311.735000,375.305000,311.793000C375.118000,311.851000,374.945000,311.946000,374.797000,312.074000C373.767000,312.933000,373.577000,315.157000,373.568000,315.247000C373.564000,315.282000,373.570000,315.317000,373.584000,315.348000C373.599000,315.380000,373.621000,315.408000,373.649000,315.428000C373.683000,315.443000,373.721000,315.449000,373.758000,315.446000ZM375.728000,312.101000L375.846000,312.101000C376.198000,312.101000,376.226000,312.273000,376.226000,312.327000C376.325000,312.888000,375.005000,314.280000,374.002000,314.886000C374.079000,313.951000,374.446000,313.063000,375.050000,312.345000C375.239000,312.184000,375.480000,312.098000,375.728000,312.101000L375.728000,312.101000Z" fill="rgb(73,154,250)" stroke="none" stroke-width="1" stroke-miterlimit="1"></path><path id="eEol3nXSYRe140" d="M361.184000,127.676000L360.334000,130.677000C360.217000,130.903000,360.488000,131.148000,360.877000,131.148000L395.337000,131.148000C395.645000,131.148000,395.889000,130.994000,395.907000,130.804000L396.214000,127.812000C396.214000,127.604000,395.970000,127.423000,395.645000,127.423000L361.736000,127.423000C361.630000,127.414000,361.523000,127.432000,361.426000,127.477000C361.330000,127.521000,361.246000,127.590000,361.184000,127.676000Z" fill="rgb(38,50,56)" stroke="none" stroke-width="1" stroke-miterlimit="1"></path><path id="eEol3nXSYRe141" d="M365.857000,131.464000L364.953000,131.464000C364.772000,131.464000,364.637000,131.374000,364.646000,131.265000L365.071000,127.369000C365.071000,127.251000,365.243000,127.161000,365.423000,127.161000L366.327000,127.161000C366.508000,127.161000,366.644000,127.251000,366.635000,127.369000L366.201000,131.265000C366.192000,131.374000,366.038000,131.464000,365.857000,131.464000Z" fill="rgb(73,154,250)" stroke="none" stroke-width="1" stroke-miterlimit="1"></path><path id="eEol3nXSYRe142" d="M392.788000,131.464000L391.884000,131.464000C391.703000,131.464000,391.558000,131.374000,391.576000,131.265000L392.001000,127.369000C392.001000,127.251000,392.173000,127.161000,392.354000,127.161000L393.258000,127.161000C393.438000,127.161000,393.574000,127.251000,393.565000,127.369000L393.140000,131.265000C393.122000,131.374000,392.968000,131.464000,392.788000,131.464000Z" fill="rgb(73,154,250)" stroke="none" stroke-width="1" stroke-miterlimit="1"></path><path id="eEol3nXSYRe143" d="M379.372000,131.464000L378.468000,131.464000C378.288000,131.464000,378.152000,131.374000,378.161000,131.265000L378.586000,127.369000C378.586000,127.251000,378.758000,127.161000,378.939000,127.161000L379.843000,127.161000C380.023000,127.161000,380.159000,127.251000,380.141000,127.369000L379.716000,131.265000C379.716000,131.374000,379.553000,131.464000,379.372000,131.464000Z" fill="rgb(73,154,250)" stroke="none" stroke-width="1" stroke-miterlimit="1"></path><path id="eEol3nXSYRe144" d="M368.524000,77.495100C363.272000,77.974300,355.245000,76.979900,355.489000,85.034500C355.733000,93.089100,354.169000,114.424000,354.585000,124.413000C355,134.402000,352.397000,199.083000,356.610000,217.832000C357.351000,221.132000,384.561000,220.707000,387.852000,220.390000L387.852000,217.416000C387.852000,217.416000,407.622000,214.758000,412.513000,215.608000C412.088000,204.344000,401.141000,147.447000,400.716000,131.464000C400.291000,115.481000,402.090000,88.017700,401.981000,83.660400C401.873000,79.303100,393.213000,77.386700,387.906000,77.495100C389.081000,81.427500,386.487000,88.813200,382.337000,97.048700C372.131000,87.104700,369.121000,82.168800,368.524000,77.495100Z" fill="rgb(73,154,250)" stroke="none" stroke-width="1" stroke-miterlimit="1"></path><path id="eEol3nXSYRe145" d="M368.524000,77.495100C363.272000,77.974300,355.245000,76.979900,355.489000,85.034500C355.733000,93.089100,354.169000,114.424000,354.585000,124.413000C355,134.402000,352.397000,199.083000,356.610000,217.832000C357.351000,221.132000,384.561000,220.707000,387.852000,220.390000L387.852000,217.416000C387.852000,217.416000,407.622000,214.758000,412.513000,215.608000C412.088000,204.344000,401.141000,147.447000,400.716000,131.464000C400.291000,115.481000,402.090000,88.017700,401.981000,83.660400C401.873000,79.303100,393.213000,77.386700,387.906000,77.495100C389.081000,81.427500,386.487000,88.813200,382.337000,97.048700C372.131000,87.104700,369.121000,82.168800,368.524000,77.495100Z" opacity="0.7" fill="rgb(255,255,255)" stroke="none" stroke-width="1" stroke-miterlimit="1"></path><path id="eEol3nXSYRe146" d="M358.525000,96.596600L355.163000,98.974100C354.900000,105.935000,354.548000,113.736000,354.512000,119.766000C357.640000,112.851000,359.402000,102.870000,358.525000,96.596600Z" opacity="0.2" fill="rgb(73,154,250)" stroke="none" stroke-width="1" stroke-miterlimit="1"></path><path id="eEol3nXSYRe147" d="M369.238000,89.373600C369.068000,89.627300,368.884000,89.871800,368.687000,90.105900L368.497000,90.322800L368.398000,90.431300L368.217000,90.621200L367.855000,91.009900L367.132000,91.814400C366.644000,92.347800,366.174000,92.899200,365.704000,93.459700C364.763000,94.580700,363.859000,95.722700,362.992000,96.885900C361.218000,99.208800,359.568000,101.623000,358.047000,104.118000C355.057000,108.724000,352.897000,113.818000,351.664000,119.169000C351.437000,120.363000,351.295000,121.572000,351.240000,122.785000C351.296000,123.389000,351.471000,123.976000,351.755000,124.512000C352.903000,126.942000,354.283000,129.255000,355.877000,131.419000C357.550000,133.805000,359.448000,136.129000,361.392000,138.425000C362.368000,139.582000,363.380000,140.703000,364.402000,141.815000C365.423000,142.927000,366.490000,144.066000,367.484000,145.051000L357.739000,154.471000C356.555000,153.178000,355.507000,152.003000,354.413000,150.764000L351.222000,147.031000C349.106000,144.527000,347.072000,141.923000,345.065000,139.193000C342.886000,136.310000,341.003000,133.214000,339.442000,129.954000C338.986000,128.944000,338.596000,127.905000,338.276000,126.844000C338.088000,126.213000,337.940000,125.569000,337.833000,124.919000C337.764000,124.545000,337.716000,124.168000,337.689000,123.789000C337.652000,123.392000,337.637000,122.994000,337.643000,122.596000C337.665000,120.654000,337.831000,118.718000,338.141000,116.801000C338.767000,113.181000,339.779000,109.638000,341.160000,106.233000C342.460000,103.010000,343.970000,99.875200,345.680000,96.849700C347.343000,93.866500,349.169000,91.018900,351.059000,88.234600C352.017000,86.842400,352.993000,85.477400,354.015000,84.130400L355.561000,82.114500L356.365000,81.102000L356.772000,80.595800L356.980000,80.351700L357.070000,80.234200L356.944000,80.378800C356.781000,80.586800,356.627000,80.794700,356.483000,81.011600L369.238000,89.373600Z" fill="rgb(73,154,250)" stroke="none" stroke-width="1" stroke-miterlimit="1"></path><path id="eEol3nXSYRe148" d="M369.238000,89.373600C369.068000,89.627300,368.884000,89.871800,368.687000,90.105900L368.497000,90.322800L368.398000,90.431300L368.217000,90.621200L367.855000,91.009900L367.132000,91.814400C366.644000,92.347800,366.174000,92.899200,365.704000,93.459700C364.763000,94.580700,363.859000,95.722700,362.992000,96.885900C361.218000,99.208800,359.568000,101.623000,358.047000,104.118000C355.057000,108.724000,352.897000,113.818000,351.664000,119.169000C351.437000,120.363000,351.295000,121.572000,351.240000,122.785000C351.296000,123.389000,351.471000,123.976000,351.755000,124.512000C352.903000,126.942000,354.283000,129.255000,355.877000,131.419000C357.550000,133.805000,359.448000,136.129000,361.392000,138.425000C362.368000,139.582000,363.380000,140.703000,364.402000,141.815000C365.423000,142.927000,366.490000,144.066000,367.484000,145.051000L357.739000,154.471000C356.555000,153.178000,355.507000,152.003000,354.413000,150.764000L351.222000,147.031000C349.106000,144.527000,347.072000,141.923000,345.065000,139.193000C342.886000,136.310000,341.003000,133.214000,339.442000,129.954000C338.986000,128.944000,338.596000,127.905000,338.276000,126.844000C338.088000,126.213000,337.940000,125.569000,337.833000,124.919000C337.764000,124.545000,337.716000,124.168000,337.689000,123.789000C337.652000,123.392000,337.637000,122.994000,337.643000,122.596000C337.665000,120.654000,337.831000,118.718000,338.141000,116.801000C338.767000,113.181000,339.779000,109.638000,341.160000,106.233000C342.460000,103.010000,343.970000,99.875200,345.680000,96.849700C347.343000,93.866500,349.169000,91.018900,351.059000,88.234600C352.017000,86.842400,352.993000,85.477400,354.015000,84.130400L355.561000,82.114500L356.365000,81.102000L356.772000,80.595800L356.980000,80.351700L357.070000,80.234200L356.944000,80.378800C356.781000,80.586800,356.627000,80.794700,356.483000,81.011600L369.238000,89.373600Z" opacity="0.7" fill="rgb(255,255,255)" stroke="none" stroke-width="1" stroke-miterlimit="1"></path><path id="eEol3nXSYRe149" d="M382.346000,97.048600C383.295000,116.340000,388.448000,183.616000,387.861000,217.416000L389.434000,217.208000C389.434000,217.208000,386.993000,165.228000,385.890000,142.484000C384.787000,119.739000,382.346000,97.048600,382.346000,97.048600Z" opacity="0.3" fill="rgb(73,154,250)" stroke="none" stroke-width="1" stroke-miterlimit="1"></path><path id="eEol3nXSYRe150" d="M366.725000,145.214000L357.070000,155.664000C357.070000,159.172000,354.621000,166.187000,361.111000,168.736000C367.602000,171.285000,367.774000,152.789000,366.725000,145.214000Z" opacity="0.3" fill="rgb(73,154,250)" stroke="none" stroke-width="1" stroke-miterlimit="1"></path><path id="eEol3nXSYRe151" d="M398.202000,144.888000L402.451000,155.537000C402.578000,159.153000,403.816000,166.385000,401.303000,169.143000C398.790000,171.900000,398.058000,152.726000,398.202000,144.888000Z" opacity="0.3" fill="rgb(73,154,250)" stroke="none" stroke-width="1" stroke-miterlimit="1"></path><path id="eEol3nXSYRe152" d="M387.653000,103.765000L398.257000,103.693000C398.362000,103.698000,398.468000,103.679000,398.566000,103.639000C398.663000,103.599000,398.751000,103.538000,398.824000,103.461000C398.896000,103.384000,398.950000,103.292000,398.984000,103.191000C399.017000,103.091000,399.028000,102.985000,399.016000,102.879000L398.428000,97.853200C398.393000,97.635600,398.284000,97.436700,398.119000,97.290200C397.955000,97.143600,397.745000,97.058300,397.524000,97.048600L386.911000,97.111900C386.806000,97.108800,386.701000,97.128200,386.604000,97.168800C386.507000,97.209300,386.420000,97.270100,386.348000,97.347100C386.276000,97.424100,386.221000,97.515500,386.188000,97.615200C386.154000,97.715000,386.142000,97.820700,386.152000,97.925500L386.740000,102.961000C386.777000,103.179000,386.888000,103.378000,387.054000,103.525000C387.220000,103.671000,387.431000,103.756000,387.653000,103.765000L387.653000,103.765000Z" fill="rgb(255,255,255)" stroke="rgb(73,154,250)" stroke-width="0.500000" stroke-miterlimit="1"></path></g><clipPath id="eEol3nXSYRe153"><rect id="eEol3nXSYRe154" width="400" height="356" rx="0" ry="0" fill="rgb(255,255,255)" stroke="none" stroke-width="1" stroke-miterlimit="1"></rect></clipPath></g></svg>